<?xml version="1.0" encoding="UTF-8" standalone="no"?>
<!-- Created with Inkscape (http://www.inkscape.org/) -->

<svg
   xmlns:osb="http://www.openswatchbook.org/uri/2009/osb"
   xmlns:dc="http://purl.org/dc/elements/1.1/"
   xmlns:cc="http://creativecommons.org/ns#"
   xmlns:rdf="http://www.w3.org/1999/02/22-rdf-syntax-ns#"
   xmlns:svg="http://www.w3.org/2000/svg"
   xmlns="http://www.w3.org/2000/svg"
   xmlns:xlink="http://www.w3.org/1999/xlink"
   xmlns:sodipodi="http://sodipodi.sourceforge.net/DTD/sodipodi-0.dtd"
   xmlns:inkscape="http://www.inkscape.org/namespaces/inkscape"
   width="210mm"
   height="297mm"
   viewBox="0 0 744.09448819 1052.3622047"
   id="svg2"
   version="1.1"
   inkscape:version="0.91 r13725"
   sodipodi:docname="jainslogo.svg"
   inkscape:export-filename="/Users/joromyboukhalil/Documents/Uni_Year3/Web Tech/Jains/client/images/jainsicon"
   inkscape:export-xdpi="90"
   inkscape:export-ydpi="90">
  <defs
     id="defs4">
    <inkscape:perspective
       sodipodi:type="inkscape:persp3d"
       inkscape:vp_x="0 : 526.1811 : 1"
       inkscape:vp_y="0 : 1000 : 0"
       inkscape:vp_z="744.09449 : 526.1811 : 1"
       inkscape:persp3d-origin="372.04724 : 350.7874 : 1"
       id="perspective6851" />
    <linearGradient
       inkscape:collect="always"
       id="linearGradient5826">
      <stop
         style="stop-color:#ffffff;stop-opacity:1;"
         offset="0"
         id="stop5828" />
      <stop
         style="stop-color:#ffffff;stop-opacity:0;"
         offset="1"
         id="stop5830" />
    </linearGradient>
    <linearGradient
       id="linearGradient5726"
       osb:paint="solid">
      <stop
         style="stop-color:#000080;stop-opacity:1;"
         offset="0"
         id="stop5728" />
    </linearGradient>
    <linearGradient
       inkscape:collect="always"
       xlink:href="#linearGradient5826"
       id="linearGradient5832"
       x1="270"
       y1="210.3622"
       x2="617"
       y2="551.36218"
       gradientUnits="userSpaceOnUse" />
  </defs>
  <sodipodi:namedview
     id="base"
     pagecolor="#ffffff"
     bordercolor="#666666"
     borderopacity="1.0"
     inkscape:pageopacity="0.0"
     inkscape:pageshadow="2"
     inkscape:zoom="1"
     inkscape:cx="215.9865"
     inkscape:cy="694.148"
     inkscape:document-units="px"
     inkscape:current-layer="layer1"
     showgrid="false"
     showguides="false"
     inkscape:window-width="1631"
     inkscape:window-height="995"
     inkscape:window-x="0"
     inkscape:window-y="0"
     inkscape:window-maximized="0"
     inkscape:snap-text-baseline="false"
     inkscape:object-nodes="false"
     inkscape:snap-others="true"
     inkscape:snap-nodes="false" />
  <metadata
     id="metadata7">
    <rdf:RDF>
      <cc:Work
         rdf:about="">
        <dc:format>image/svg+xml</dc:format>
        <dc:type
           rdf:resource="http://purl.org/dc/dcmitype/StillImage" />
        <dc:title />
      </cc:Work>
    </rdf:RDF>
  </metadata>
  <g
     inkscape:label="Layer 1"
     inkscape:groupmode="layer"
     id="layer1">
    <path
       style="fill:#000080;fill-opacity:0.82407406;fill-rule:evenodd;stroke:none;stroke-width:1px;stroke-linecap:butt;stroke-linejoin:miter;stroke-opacity:1"
       d="M 623.45898,370.14844 534,418.3622 l 17,-98 z"
       id="path4282"
       inkscape:connector-curvature="0"
       inkscape:export-xdpi="90"
       inkscape:export-ydpi="90" />
    <path
       style="fill:#000080;fill-opacity:0.60493828;fill-rule:evenodd;stroke:none;stroke-width:1px;stroke-linecap:butt;stroke-linejoin:miter;stroke-opacity:1"
       d="M 127.54102,331.78906 215,280.3622 l 14,89 z"
       id="path4280"
       inkscape:connector-curvature="0"
       inkscape:export-xdpi="90"
       inkscape:export-ydpi="90" />
    <path
       style="color:#000000;font-style:normal;font-variant:normal;font-weight:normal;font-stretch:normal;font-size:medium;line-height:normal;font-family:sans-serif;text-indent:0;text-align:start;text-decoration:none;text-decoration-line:none;text-decoration-style:solid;text-decoration-color:#000000;letter-spacing:normal;word-spacing:normal;text-transform:none;direction:ltr;block-progression:tb;writing-mode:lr-tb;baseline-shift:baseline;text-anchor:start;white-space:normal;clip-rule:nonzero;display:inline;overflow:visible;visibility:visible;opacity:1;isolation:auto;mix-blend-mode:normal;color-interpolation:sRGB;color-interpolation-filters:linearRGB;solid-color:#000000;solid-opacity:1;fill:#000080;fill-opacity:0.82407406;fill-rule:nonzero;stroke:none;stroke-width:15.0799942;stroke-linecap:butt;stroke-linejoin:miter;stroke-miterlimit:4;stroke-dasharray:none;stroke-dashoffset:0;stroke-opacity:1;color-rendering:auto;image-rendering:auto;shape-rendering:auto;text-rendering:auto;enable-background:accumulate"
       d="m 623.45898,259.06836 -495.91796,72.7207 0,7.54102 0,103.53906 495.91796,-72.7207 0,-111.08008 z"
       id="path4276"
       inkscape:connector-curvature="0"
       inkscape:export-xdpi="90"
       inkscape:export-ydpi="90" />
    <path
       inkscape:connector-curvature="0"
       id="path4258"
       d="m 306.16311,336.59964 c -0.81966,0.62793 -0.81966,0.62793 0,0 z"
       style="opacity:1;fill:#000080;fill-opacity:0.50349654;stroke:#000080;stroke-width:15;stroke-miterlimit:4;stroke-dasharray:none;stroke-opacity:1"
       inkscape:export-xdpi="90"
       inkscape:export-ydpi="90" />
    <path
       inkscape:connector-curvature="0"
       id="path4260"
       d="m 293.51272,336.4206 c -0.59375,0.55934 -0.59375,0.55934 0,0 z"
       style="opacity:1;fill:#000080;fill-opacity:0.50349654;stroke:#000080;stroke-width:15;stroke-miterlimit:4;stroke-dasharray:none;stroke-opacity:1"
       inkscape:export-xdpi="90"
       inkscape:export-ydpi="90" />
    <path
       inkscape:connector-curvature="0"
       id="path4262"
       d="m 282.001,336.27061 c -0.40039,0.46223 -0.40039,0.46223 0,0 z"
       style="opacity:1;fill:#000080;fill-opacity:0.50349654;stroke:#000080;stroke-width:15;stroke-miterlimit:4;stroke-dasharray:none;stroke-opacity:1"
       inkscape:export-xdpi="90"
       inkscape:export-ydpi="90" />
    <path
       inkscape:connector-curvature="0"
       id="path4264"
       d="m 271.74514,336.14402 c -0.25065,0.35659 -0.25065,0.35659 0,0 z"
       style="opacity:1;fill:#000080;fill-opacity:0.50349654;stroke:#000080;stroke-width:15;stroke-miterlimit:4;stroke-dasharray:none;stroke-opacity:1"
       inkscape:export-xdpi="90"
       inkscape:export-ydpi="90" />
    <path
       inkscape:connector-curvature="0"
       id="path4266"
       d="m 261.83889,315.49687 c -0.13281,0.23742 -0.13281,0.23742 0,0 z"
       style="opacity:1;fill:#000080;fill-opacity:0.50349654;stroke:#000080;stroke-width:15;stroke-miterlimit:4;stroke-dasharray:none;stroke-opacity:1"
       inkscape:export-xdpi="90"
       inkscape:export-ydpi="90" />
    <path
       inkscape:connector-curvature="0"
       id="path4268"
       d="m 254.376,329.91041 c -0.0547,0.12672 -0.0547,0.12672 0,0 z"
       style="opacity:1;fill:#000080;fill-opacity:0.50349654;stroke:#000080;stroke-width:15;stroke-miterlimit:4;stroke-dasharray:none;stroke-opacity:1"
       inkscape:export-xdpi="90"
       inkscape:export-ydpi="90" />
    <path
       inkscape:connector-curvature="0"
       id="path4270"
       d="m 248.42873,344.99124 c -0.0124,0.0395 -0.0124,0.0395 0,0 z"
       style="opacity:1;fill:#000080;fill-opacity:0.50349654;stroke:#000080;stroke-width:15;stroke-miterlimit:4;stroke-dasharray:none;stroke-opacity:1"
       inkscape:export-xdpi="90"
       inkscape:export-ydpi="90" />
    <path
       style="color:#000000;font-style:normal;font-variant:normal;font-weight:normal;font-stretch:normal;font-size:medium;line-height:normal;font-family:sans-serif;text-indent:0;text-align:start;text-decoration:none;text-decoration-line:none;text-decoration-style:solid;text-decoration-color:#000000;letter-spacing:normal;word-spacing:normal;text-transform:none;direction:ltr;block-progression:tb;writing-mode:lr-tb;baseline-shift:baseline;text-anchor:start;white-space:normal;clip-rule:nonzero;display:inline;overflow:visible;visibility:visible;opacity:1;isolation:auto;mix-blend-mode:normal;color-interpolation:sRGB;color-interpolation-filters:linearRGB;solid-color:#000000;solid-opacity:1;fill:#000080;fill-opacity:1;fill-rule:nonzero;stroke:none;stroke-width:40;stroke-linecap:butt;stroke-linejoin:miter;stroke-miterlimit:4;stroke-dasharray:none;stroke-dashoffset:0;stroke-opacity:1;color-rendering:auto;image-rendering:auto;shape-rendering:auto;text-rendering:auto;enable-background:accumulate"
       d="M 375.00977 112.21484 C 313.97052 147.45483 254.05438 182.04761 193 217.29688 L 193 427.82422 C 196.95738 451.98079 203.39992 479.18349 216.87109 501.36523 C 254.45656 569.75616 338.96719 607.54387 414.94336 589.12695 C 494.35828 572.49333 556.34448 497.31891 557.03125 416.0957 C 557.00425 349.83285 557.02693 283.56287 557.01953 217.29688 C 496.20592 182.19255 435.81916 147.32488 375.00977 112.21484 z M 380.56445 217.79883 C 399.61299 217.93516 419.31038 223.36871 439.99805 235.49609 C 445.79128 228.06945 451.31582 220.02174 459.96094 219.16406 L 468.0332 222.61719 C 468.0434 222.64319 468.0525 222.66931 468.0625 222.69531 L 472.48828 225.06445 L 472.51953 225.02539 L 478.06445 227.99219 C 480.36022 231.94607 479.71997 236.68808 480.16406 241.18555 C 476.51587 257.60084 468.25315 264.56169 459.47852 271.86719 L 454.37695 273.23828 L 450.47461 273.99023 L 444.89844 271.26758 C 444.93657 271.2235 444.97993 271.19014 445.01953 271.14844 L 440.95508 269.16406 C 440.93248 269.17366 440.90952 269.18141 440.88672 269.19141 C 437.9887 268.39459 435.6265 266.52665 433.43359 264.32227 C 431.25584 258.74986 432.03133 253.14912 434.05664 247.05469 C 434.87448 244.51185 436.13953 242.11805 437.44727 239.73828 C 397.75425 217.13627 359.1426 217.92897 321.46289 238.81445 C 322.99821 241.6015 324.55703 244.37937 325.51367 247.35938 C 327.53899 253.46535 328.31447 259.0772 326.13672 264.66016 C 323.9438 266.86871 321.58162 268.73878 318.68359 269.53711 C 318.66079 269.52751 318.63803 269.51977 318.61523 269.50977 L 314.55078 271.49805 C 314.59031 271.53984 314.63378 271.57299 314.67188 271.61719 L 309.0957 274.3457 L 305.19336 273.5918 L 300.0918 272.2168 C 291.31714 264.89747 283.05447 257.92486 279.40625 241.47852 C 279.85034 236.97253 279.21008 232.22114 281.50586 228.25977 L 287.05078 225.28711 L 287.08203 225.32617 L 291.50781 222.95312 C 291.51781 222.92703 291.52691 222.9011 291.53711 222.875 L 299.60938 219.41406 C 307.97199 220.24528 313.4137 227.81771 319.00391 235.04688 C 339.03782 224.04566 359.40021 217.64735 380.56445 217.79883 z M 468.83008 225.10547 C 471.0492 233.82594 467.49507 243.01357 462.97656 252.2793 C 458.17316 262.7714 450.78085 265.29485 443.49414 268.14453 C 444.07429 268.41493 444.72836 268.81692 445.47656 269.38086 L 450.97266 268.27148 C 463.54796 260.67408 470.12422 251.52714 472.1582 239.08594 C 472.82037 235.00722 472.76959 231.00167 471.75977 227.08984 L 468.83008 225.10547 z M 290.74023 225.36914 L 287.81055 227.35547 C 286.80073 231.27471 286.74995 235.29052 287.41211 239.37695 C 289.4461 251.8417 296.02232 261.00345 308.59766 268.61523 L 314.09375 269.72656 C 314.84195 269.16156 315.496 268.7592 316.07617 268.48828 C 308.78942 265.63321 301.39718 263.10571 296.59375 252.59375 C 292.07522 243.31049 288.5211 234.10611 290.74023 225.36914 z M 474.12891 227.92578 C 475.11663 231.28076 474.79291 234.99374 475.14453 238.55469 C 471.49633 254.96996 463.23361 261.93082 454.45898 269.23633 L 449.35938 270.60938 L 448.50977 270.77344 C 449.09052 271.04383 449.74485 271.44501 450.49414 272.00977 L 455.99023 270.90039 C 468.56551 263.30298 475.1418 254.15801 477.17578 241.7168 C 477.83793 237.63809 477.78717 233.63058 476.77734 229.71875 L 474.12891 227.92578 z M 285.44141 228.19336 L 282.79297 229.99023 C 281.78313 233.90946 281.73042 237.92529 282.39258 242.01172 C 284.42656 254.47647 291.00474 263.63822 303.58008 271.25 L 309.07422 272.36133 C 309.82352 271.7955 310.47979 271.39396 311.06055 271.12305 L 310.21094 270.95703 L 305.11133 269.58203 C 296.33666 262.2627 288.07204 255.29009 284.42383 238.84375 C 284.77545 235.27606 284.4537 231.5547 285.44141 228.19336 z "
       id="path4200"
       inkscape:export-xdpi="90"
       inkscape:export-ydpi="90" />
    <rect
       style="opacity:1;fill:#ffffff;fill-opacity:1;stroke:none;stroke-width:10.05332947;stroke-miterlimit:4;stroke-dasharray:none;stroke-opacity:1"
       id="rect4238"
       width="486.14401"
       height="96"
       x="136.44374"
       y="358.03311"
       transform="matrix(0.98941878,-0.1450878,0,1,0,0)"
       inkscape:export-xdpi="90"
       inkscape:export-ydpi="90" />
    <path
       style="opacity:1;fill:#000080;fill-opacity:0.50349654;stroke:none;stroke-width:4;stroke-miterlimit:4;stroke-dasharray:none;stroke-opacity:1"
       d="m 339.42483,166.98209 c -0.48438,0.1849 -0.48438,0.1849 0,0 z"
       id="path4165"
       inkscape:connector-curvature="0"
       inkscape:export-xdpi="90"
       inkscape:export-ydpi="90" />
    <path
       style="opacity:1;fill:#000080;fill-opacity:0.50349654;stroke:none;stroke-width:4;stroke-miterlimit:4;stroke-dasharray:none;stroke-opacity:1"
       d="m 306.16311,336.59964 c -0.81966,0.62793 -0.81966,0.62793 0,0 z"
       id="path4163"
       inkscape:connector-curvature="0"
       inkscape:export-xdpi="90"
       inkscape:export-ydpi="90" />
    <path
       style="opacity:1;fill:#000080;fill-opacity:0.50349654;stroke:none;stroke-width:4;stroke-miterlimit:4;stroke-dasharray:none;stroke-opacity:1"
       d="m 293.51272,336.4206 c -0.59375,0.55934 -0.59375,0.55934 0,0 z"
       id="path4161"
       inkscape:connector-curvature="0"
       inkscape:export-xdpi="90"
       inkscape:export-ydpi="90" />
    <path
       style="opacity:1;fill:#000080;fill-opacity:0.50349654;stroke:none;stroke-width:4;stroke-miterlimit:4;stroke-dasharray:none;stroke-opacity:1"
       d="m 282.001,336.27061 c -0.40039,0.46223 -0.40039,0.46223 0,0 z"
       id="path4159"
       inkscape:connector-curvature="0"
       inkscape:export-xdpi="90"
       inkscape:export-ydpi="90" />
    <path
       style="opacity:1;fill:#000080;fill-opacity:0.50349654;stroke:none;stroke-width:4;stroke-miterlimit:4;stroke-dasharray:none;stroke-opacity:1"
       d="m 271.74514,336.14402 c -0.25065,0.35659 -0.25065,0.35659 0,0 z"
       id="path4157"
       inkscape:connector-curvature="0"
       inkscape:export-xdpi="90"
       inkscape:export-ydpi="90" />
    <path
       style="opacity:1;fill:#000080;fill-opacity:0.50349654;stroke:none;stroke-width:4;stroke-miterlimit:4;stroke-dasharray:none;stroke-opacity:1"
       d="m 261.83889,315.49687 c -0.13281,0.23742 -0.13281,0.23742 0,0 z"
       id="path4155"
       inkscape:connector-curvature="0"
       inkscape:export-xdpi="90"
       inkscape:export-ydpi="90" />
    <path
       style="opacity:1;fill:#000080;fill-opacity:0.50349654;stroke:none;stroke-width:4;stroke-miterlimit:4;stroke-dasharray:none;stroke-opacity:1"
       d="m 254.376,329.91041 c -0.0547,0.12672 -0.0547,0.12672 0,0 z"
       id="path4153"
       inkscape:connector-curvature="0"
       inkscape:export-xdpi="90"
       inkscape:export-ydpi="90" />
    <path
       style="opacity:1;fill:#000080;fill-opacity:0.50349654;stroke:none;stroke-width:4;stroke-miterlimit:4;stroke-dasharray:none;stroke-opacity:1"
       d="m 248.42873,344.99124 c -0.0124,0.0395 -0.0124,0.0395 0,0 z"
       id="path4143"
       inkscape:connector-curvature="0"
       inkscape:export-xdpi="90"
       inkscape:export-ydpi="90" />
    <path
       style="color:#000000;font-style:normal;font-variant:normal;font-weight:normal;font-stretch:normal;font-size:medium;line-height:normal;font-family:sans-serif;text-indent:0;text-align:start;text-decoration:none;text-decoration-line:none;text-decoration-style:solid;text-decoration-color:#000000;letter-spacing:normal;word-spacing:normal;text-transform:none;direction:ltr;block-progression:tb;writing-mode:lr-tb;baseline-shift:baseline;text-anchor:start;white-space:normal;clip-rule:nonzero;display:inline;overflow:visible;visibility:visible;opacity:1;isolation:auto;mix-blend-mode:normal;color-interpolation:sRGB;color-interpolation-filters:linearRGB;solid-color:#000000;solid-opacity:1;fill:url(#linearGradient5832);fill-opacity:1;fill-rule:nonzero;stroke:none;stroke-width:15;stroke-linecap:butt;stroke-linejoin:miter;stroke-miterlimit:4;stroke-dasharray:none;stroke-dashoffset:0;stroke-opacity:1;color-rendering:auto;image-rendering:auto;shape-rendering:auto;text-rendering:auto;enable-background:accumulate"
       d="m 375.00977,126.64844 c -56.50483,32.61902 -113.00587,65.24458 -169.50979,97.86519 0.17792,66.18948 -0.35553,132.5079 0.26604,198.61471 3.89092,77.0196 66.93265,145.45835 143.27557,155.95312 73.59491,12.65387 151.69117,-30.17723 180.96622,-98.78395 19.23799,-39.47378 13.65874,-83.7759 14.51182,-126.12705 0,-43.21893 0,-86.43785 0,-129.65678 -56.64599,-32.69892 -112.86462,-65.16053 -169.50986,-97.86524 z m 0,17.31836 c 51.6462,29.82095 102.86497,59.3974 154.5098,89.20709 -0.23876,63.36657 0.48571,126.76389 -0.377,190.11027 -4.05217,71.46177 -64.06452,134.27431 -135.25399,141.62438 -68.54789,9.69032 -139.71439,-33.13241 -163.36125,-98.16536 -8.62541,-20.806 -10.56907,-44.87663 -10.02731,-66.4189 0,-55.7168 0,-111.43359 0,-167.15039 51.68724,-29.83452 102.80232,-59.34836 154.50975,-89.20709 z"
       id="path4189"
       inkscape:connector-curvature="0"
       inkscape:export-xdpi="90"
       inkscape:export-ydpi="90" />
    <text
       xml:space="preserve"
       style="font-style:normal;font-variant:normal;font-weight:normal;font-stretch:normal;font-size:75.33772278px;line-height:125%;font-family:AppleMyungjo;-inkscape-font-specification:'AppleMyungjo, Normal';text-align:start;letter-spacing:0px;word-spacing:0px;writing-mode:lr-tb;text-anchor:start;fill:#000080;fill-opacity:1;stroke:none;stroke-width:1px;stroke-linecap:butt;stroke-linejoin:miter;stroke-opacity:1;"
       x="198.67619"
       y="337.06912"
       id="text4232"
       sodipodi:linespacing="125%"
       transform="matrix(0.76317433,-0.11191144,0,1.3103166,0,0)"
       inkscape:export-xdpi="90"
       inkscape:export-ydpi="90"><tspan
         sodipodi:role="line"
         id="tspan4234"
         x="198.67619"
         y="337.06912">MAKING JAINS</tspan></text>
    <path
       style="opacity:1;fill:#ffffff;fill-opacity:0;stroke:none;stroke-width:15;stroke-miterlimit:4;stroke-dasharray:none;stroke-opacity:1"
       id="path7467"
       sodipodi:type="arc"
       sodipodi:cx="150.35461"
       sodipodi:cy="711.22748"
       sodipodi:rx="140.42554"
       sodipodi:ry="64.539009"
       sodipodi:start="0"
       sodipodi:end="6.1964599"
       sodipodi:open="true"
       d="M 290.78015,711.22748 A 140.42554,64.539009 0 0 1 153.39899,775.75132 140.42554,64.539009 0 0 1 10.061079,714.02519 140.42554,64.539009 0 0 1 141.22721,646.82494 140.42554,64.539009 0 0 1 290.25239,705.63732" />
    <path
       sodipodi:nodetypes="ccccccccccccccccccccc"
       inkscape:connector-curvature="0"
       id="path7545"
       d="m 318.70313,724.82024 c 2.2924,-15.51074 8.09809,-27.61303 14.77348,-40.15356 3.07053,-6.79021 8.03749,-11.91368 12.59482,-16.23305 4.8047,-5.31789 10.39454,-7.33704 16.96429,-8.21428 2.68268,-0.0995 3.64456,0.53838 5.26785,0.89285 6.07955,3.24134 7.89917,8.3924 9.375,12.67858 2.84417,3.87898 2.5293,7.12615 3.78029,10.68649 1.30611,3.93539 1.39695,7.87077 2.08344,11.80616 l 0.31567,9.09137 -0.44194,9.15451 -1.26269,8.64943 -4.41942,22.79157 -6.43972,16.54125 c -1.66294,3.26195 -2.86633,6.5239 -5.61898,9.78585 -2.06392,4.29974 -5.39171,7.08282 -8.20749,10.48033 -2.72168,2.69244 -5.10258,5.60698 -8.64943,7.63928 -3.16534,2.52232 -7.10462,3.68571 -11.11168,3.85121 -5.22503,0.13918 -9.46311,-2.58377 -13.00571,-7.32361 -3.37223,-5.31685 -6.11439,-10.15309 -6.7554,-16.22557 -1.9704,-5.94111 -2.14129,-12.26138 -2.0203,-18.68782 -0.0398,-9.21891 0.63516,-18.32786 2.77792,-27.21099 z"
       style="fill:none;fill-rule:evenodd;stroke:none;stroke-width:1px;stroke-linecap:butt;stroke-linejoin:miter;stroke-opacity:1;fill-opacity:1" />
    <path
       style="fill:#000080;fill-opacity:1"
       d="m 358.13466,466.4737 0,-38.85529 38.85529,0 38.85529,0 0,38.85529 0,38.85529 -38.85529,0 -38.85529,0 0,-38.85529 z m 34.80547,21.47001 c 0.45982,-0.78462 0.47016,-0.86014 0.37234,-2.71987 -0.0553,-1.05207 -0.0558,-2.39734 -8.1e-4,-2.98949 0.0947,-1.0248 0.11906,-1.07175 0.50493,-0.9749 0.32146,0.0807 0.43933,0.0125 0.56935,-0.32952 0.0902,-0.23719 0.12139,-0.59408 0.0693,-0.79308 -0.0976,-0.373 -0.0316,-0.42027 0.85858,-0.61577 0.26526,-0.0582 0.53146,-0.23959 0.59155,-0.40297 0.0601,-0.16338 0.29485,-0.47279 0.52169,-0.68758 0.41684,-0.39469 0.41777,-0.8608 0.003,-1.37956 -0.28811,-0.36008 -1.80215,-0.27105 -2.20273,0.12952 -0.44455,0.44456 -0.62999,0.43422 -1.46786,-0.0818 -0.37992,-0.234 -0.83431,-0.42788 -1.00976,-0.43084 -0.411,-0.007 -2.61341,-2.13013 -3.09091,-2.97973 -0.34646,-0.61644 -0.94417,-1.01631 -2.24569,-1.50239 -0.58936,-0.2201 -0.60206,-0.41791 -0.0432,-0.67255 0.63811,-0.29074 0.54221,-0.60018 -0.16058,-0.51814 -0.72413,0.0845 -0.63949,-0.0972 0.25864,-0.5554 0.72381,-0.36926 0.83946,-0.67239 0.41753,-1.09433 -0.207,-0.20699 -0.36966,-0.22382 -0.78016,-0.0807 -0.70974,0.24742 -1.37599,0.0599 -1.37599,-0.38735 0,-0.58999 0.84137,-2.11513 1.87276,-3.39475 0.53715,-0.66643 1.10901,-1.45428 1.27081,-1.75078 0.32412,-0.59396 0.48635,-0.62368 2.34431,-0.42948 0.91808,0.096 1.06146,0.16091 1.15206,0.52187 0.084,0.33461 0.1622,0.38085 0.41521,0.24544 0.2933,-0.15697 2.42801,0.26162 2.93634,0.57578 0.1029,0.0636 0.41865,-0.004 0.70166,-0.15046 0.64695,-0.33455 1.22248,-0.34248 1.22248,-0.0169 0,0.30711 -0.65746,0.7869 -1.07827,0.7869 -0.17086,0 -0.60041,0.18607 -0.95455,0.41349 -1.20953,0.77674 -2.62982,0.78358 -2.62982,0.0127 0,-0.50849 -0.33154,-0.69048 -1.53812,-0.84429 -0.68589,-0.0874 -0.97165,-0.0592 -1.07667,0.10638 -0.20236,0.31905 -0.1819,1.37253 0.039,2.00611 0.14919,0.42798 0.13341,0.61391 -0.0777,0.91536 -0.2319,0.33108 -0.23451,0.45119 -0.0209,0.96242 0.1855,0.44395 0.19871,0.68367 0.055,0.99898 -0.25194,0.55295 -0.0629,1.0193 0.36753,0.90674 0.28548,-0.0747 0.34187,0.017 0.38645,0.62799 0.0287,0.39348 0.12881,0.71541 0.22243,0.71541 0.0936,0 0.42391,-0.38767 0.73394,-0.86148 0.50354,-0.76955 0.56369,-0.81326 0.56369,-0.4097 0,0.5143 0.39528,0.92352 0.7577,0.78445 0.13421,-0.0515 0.29941,-0.42932 0.3671,-0.8396 0.18645,-1.12995 0.31564,-1.21736 1.59665,-1.08017 1.09448,0.11721 1.10677,0.11379 1.04942,-0.29166 -0.0466,-0.3293 -0.17731,-0.42121 -0.66244,-0.46575 -0.86922,-0.0798 -0.99,-0.30769 -0.28618,-0.53997 0.8462,-0.27927 1.88774,0.0103 2.15619,0.59951 0.10967,0.2407 0.46501,0.59434 0.78964,0.78587 0.72097,0.42539 1.08004,1.25395 1.32801,3.06444 0.17261,1.26029 0.50603,2.10344 0.83178,2.10344 0.0819,0 0.27666,0.19507 0.43288,0.43349 0.36194,0.55239 0.19825,0.87682 -0.83537,1.65565 -1.433,1.07976 -0.7747,1.39931 0.96857,0.47016 1.1926,-0.63565 2.07208,-1.58116 2.35781,-2.53485 0.27761,-0.92657 0.25313,-1.37972 -0.14274,-2.64259 -0.48218,-1.53822 -0.46284,-1.69036 0.21364,-1.68 0.30868,0.005 0.83271,-0.0754 1.16452,-0.17795 0.71006,-0.21956 3.04943,-0.25084 3.17819,-0.0425 0.15182,0.24565 -0.23008,3.35111 -0.51998,4.22821 -0.32451,0.98185 -1.13171,1.64768 -2.68346,2.21347 -1.13887,0.41525 -1.29581,0.66728 -0.41553,0.66728 0.73522,0 0.95419,0.29048 0.38274,0.50774 -0.92183,0.35048 -0.70538,0.86613 0.36566,0.87114 0.71892,0.003 0.77696,0.15349 1.24611,3.22314 l 0.36557,2.39193 -0.35466,0.23692 c -0.45087,0.30119 -0.44661,0.5064 0.0208,1.00396 0.43807,0.46629 0.75383,0.51062 0.90123,0.12652 0.16638,-0.4336 0.1218,-1.25018 -0.0749,-1.37174 -0.0988,-0.0611 -0.1399,-0.24053 -0.0912,-0.39875 0.0487,-0.15822 0.0152,-1.02592 -0.0744,-1.92823 -0.32577,-3.28196 -0.15647,-4.89526 0.57762,-5.50406 0.15718,-0.13035 0.28578,-0.38291 0.28578,-0.56124 0,-0.17833 0.0693,-0.32424 0.15395,-0.32424 0.30291,0 0.74969,-1.47877 0.7396,-2.44793 -0.007,-0.65349 0.0728,-1.04897 0.23888,-1.18681 0.29827,-0.24754 0.32447,-0.91189 0.0531,-1.34642 -0.15528,-0.24864 -0.13207,-0.3885 0.11174,-0.67325 0.16925,-0.19768 0.40659,-0.32147 0.52742,-0.27511 0.5796,0.22241 1.44782,-0.92225 0.93836,-1.23711 -0.095,-0.0587 -0.17269,-0.36235 -0.17269,-0.67477 0,-0.49604 0.0821,-0.60025 0.64759,-0.82236 l 0.64758,-0.25433 -0.0163,-1.68673 c -0.0159,-1.64416 -0.029,-1.69708 -0.51807,-2.09696 -0.68837,-0.56283 -2.23316,-0.60717 -2.40397,-0.069 -0.0617,0.19452 -0.0458,0.44708 0.0353,0.56124 0.12589,0.17704 0.15167,0.8265 0.0728,1.83507 -0.0137,0.17512 -0.14614,0.12672 -0.45992,-0.16805 -0.27265,-0.25615 -0.43029,-0.58041 -0.41342,-0.85038 0.0535,-0.85662 0.0373,-0.86884 -0.76132,-0.57285 -0.7496,0.27782 -0.75407,0.27713 -1.40164,-0.2168 l -0.64964,-0.4955 0.0779,-1.34569 c 0.0428,-0.74012 0.0479,-1.34568 0.0113,-1.34568 -0.14152,0 -0.56704,1.21929 -0.56704,1.62482 0,0.57486 -0.28238,0.71517 -0.52541,0.26107 -0.14272,-0.26668 -0.14512,-0.42099 -0.009,-0.55745 0.73428,-0.73427 -0.65224,-3.13338 -1.93059,-3.34053 -0.35828,-0.0581 -0.69314,-0.17306 -0.74413,-0.25557 -0.051,-0.0825 -0.28698,-0.15 -0.52443,-0.15 -0.24384,0 -0.38527,-0.0752 -0.325,-0.17269 0.16884,-0.27319 -0.19347,-0.20073 -0.43172,0.0863 -0.11824,0.14247 -0.33034,0.25904 -0.47135,0.25904 -0.1771,0 -0.21735,0.0934 -0.13018,0.30221 0.0694,0.16621 0.17488,0.51988 0.23439,0.78592 0.12703,0.56783 0.47657,0.5602 0.40377,-0.009 -0.0703,-0.54958 0.26877,-0.48562 1.15333,0.21753 0.41703,0.33152 0.92215,0.60554 1.12249,0.60896 0.20034,0.003 0.58951,0.1904 0.86482,0.41551 0.47732,0.39029 0.49523,0.45489 0.3853,1.39019 -0.0634,0.53948 -0.23038,1.20346 -0.37106,1.4755 -0.14068,0.27204 -0.25578,0.6423 -0.25578,0.8228 0,0.60288 -0.36695,1.39028 -0.77142,1.6553 -0.39071,0.256 -0.39962,0.24911 -0.37564,-0.29081 0.0222,-0.50077 -0.0271,-0.55805 -0.52191,-0.60605 -0.42635,-0.0414 -0.57126,0.0251 -0.65922,0.30221 -0.0625,0.19708 -0.26133,0.35522 -0.44649,0.35522 -0.40419,0 -0.46617,-0.77067 -0.0961,-1.19523 0.18341,-0.21044 0.21721,-0.7059 0.14815,-2.17173 l -0.0895,-1.89909 -0.37626,1.20643 c -0.33481,1.07352 -0.39226,1.15907 -0.52153,0.7766 -0.16105,-0.47654 -0.42651,-2.27127 -0.43128,-2.91594 -0.002,-0.22761 -0.0808,-0.50745 -0.17572,-0.62187 -0.17839,-0.21495 -0.2361,-0.77986 -0.14116,-1.38195 0.0481,-0.30511 -0.0462,-0.34703 -0.80899,-0.35956 -1.46943,-0.0241 -2.50827,0.13496 -2.88772,0.44222 -0.29799,0.2413 -0.35779,0.46303 -0.33077,1.22649 0.027,0.76366 0.15052,1.10382 0.68385,1.88368 0.62526,0.9143 0.68433,0.95387 1.50202,1.00595 1.07458,0.0685 1.41044,0.30539 1.02952,0.72631 -0.24334,0.26889 -0.24378,0.30967 -0.004,0.40155 0.37563,0.14414 0.33366,0.50307 -0.0448,0.38296 -0.1712,-0.0543 -0.46261,0.0157 -0.64759,0.15556 -0.42239,0.31945 -1.5774,0.3365 -2.16108,0.0319 -0.66863,-0.34893 -1.33583,-0.47966 -1.45596,-0.28528 -0.18773,0.30375 -1.02732,0.1933 -1.25079,-0.16453 -0.33834,-0.54175 -1.4433,-0.75297 -2.69089,-0.51436 -0.5867,0.1122 -2.09512,0.25272 -3.35205,0.31225 l -2.28533,0.10824 -0.3482,0.6841 c -0.19151,0.37626 -0.34821,0.73983 -0.34821,0.80795 0,0.25504 0.5556,0.66658 0.89993,0.66658 0.47352,0 0.81471,0.47743 0.82149,1.14949 0.005,0.46009 -0.048,0.53108 -0.3378,0.45531 -0.23106,-0.0604 -0.38249,0.0154 -0.46323,0.23203 -0.066,0.17699 -0.27449,0.53371 -0.46336,0.79271 -0.2893,0.39673 -0.31154,0.54085 -0.14118,0.91476 0.11123,0.2441 0.20222,0.58728 0.20222,0.7626 0,0.38354 0.43174,0.5791 0.9296,0.42109 0.31999,-0.10156 0.33521,-0.0818 0.12879,0.16688 -0.53292,0.64213 0.55807,2.7035 1.43084,2.7035 0.44318,0 0.68351,0.22316 2.31047,2.14542 0.63696,0.75258 1.68952,1.91824 2.33901,2.59035 1.9017,1.96795 1.91277,2.00776 1.98389,7.13668 0.0667,4.81202 0.1259,5.02477 0.98818,3.5534 z m -2.5124,-20.27137 c 0,-0.10058 0.0777,-0.13485 0.17268,-0.0762 0.095,0.0587 0.1727,0.14099 0.1727,0.18288 0,0.0419 -0.0777,0.0761 -0.1727,0.0761 -0.095,0 -0.17268,-0.0823 -0.17268,-0.18288 z m 13.58495,-2.17722 c -0.0633,-0.0633 -0.11512,-0.33382 -0.11512,-0.60112 0,-0.38127 0.0983,-0.51066 0.45597,-0.60045 0.52152,-0.13089 1.29549,0.0931 1.399,0.40491 0.1365,0.41112 -1.41498,1.12153 -1.73985,0.79666 z m -7.97252,-4.80119 c -0.56174,-0.46044 -0.94989,-0.5406 -1.23539,-0.2551 -0.28113,0.28113 -0.97401,-1.45731 -0.83432,-2.09332 0.0607,-0.2763 0.16391,-0.53547 0.22938,-0.57593 0.24486,-0.15133 1.80874,0.25118 2.00182,0.51523 0.11042,0.151 0.46895,0.33093 0.79674,0.39982 0.55259,0.11614 0.59459,0.17108 0.57697,0.75464 -0.0256,0.84721 -0.39087,1.68123 -0.73588,1.68018 -0.15469,-4.1e-4 -0.51439,-0.19196 -0.79932,-0.42552 z m -1.13574,25.19206 c 0.60064,-0.50541 0.64289,-0.73584 0.26785,-1.46109 -0.2854,-0.5519 -0.84229,-0.6818 -1.01323,-0.23634 -0.1656,0.43154 -0.12197,2.14451 0.0546,2.14451 0.0877,0 0.39853,-0.20118 0.69076,-0.44708 z m 3.36947,-1.62093 c 0.39842,-0.15148 0.44286,-0.26001 0.442,-1.07931 -0.001,-1.28697 -0.29056,-2.24174 -0.65765,-2.17118 -0.52341,0.10063 -0.789,3.41891 -0.27365,3.41891 0.0255,0 0.24566,-0.0758 0.4893,-0.16842 z m 4.76022,-0.51105 c 0,-1.32553 -0.74608,-4.32855 -1.0754,-4.32855 -0.28715,0 -0.0548,4.66939 0.24169,4.85736 0.55205,0.34999 0.83371,0.17134 0.83371,-0.52881 z m -2.86203,0.18184 c 0.1239,-0.20046 -0.21045,-3.72412 -0.43206,-4.55356 -0.18308,-0.68519 -0.39946,-0.82659 -0.57297,-0.37443 -0.0577,0.15024 -0.10482,1.35475 -0.10482,2.6767 l 0,2.40354 0.50788,0 c 0.27934,0 0.55022,-0.0685 0.60197,-0.15225 z m -18.80972,-1.61783 c 1.01299,-0.65551 1.26702,-1.45281 1.16921,-3.66966 -0.0461,-1.04478 -0.13395,-1.95376 -0.19522,-2.01996 -0.0613,-0.0662 -1.74333,-0.13358 -3.7379,-0.14973 l -3.62649,-0.0294 -0.0506,2.04933 c -0.0442,1.79128 -0.004,2.14822 0.31537,2.83468 0.52307,1.12254 1.12832,1.35321 3.57999,1.3644 1.7329,0.008 2.01072,-0.0335 2.54563,-0.37968 z m 35.52562,-0.0442 c 1.01819,-0.69188 1.18886,-1.24979 1.13255,-3.70222 l -0.0487,-2.12225 -3.6149,0.0295 c -1.98819,0.0163 -3.6784,0.0688 -3.75601,0.11674 -0.0776,0.048 -0.14112,1.04252 -0.14112,2.21011 0,1.91959 0.0375,2.1791 0.392,2.70969 0.64232,0.9615 1.31503,1.19062 3.49662,1.19092 1.74645,1.8e-4 1.95497,-0.0353 2.53958,-0.43251 z m -43.42946,-1.85782 0.64998,-0.65005 0,-1.59492 0,-1.59492 -3.62649,-0.0863 c -1.99457,-0.0475 -3.69585,-0.0325 -3.78062,0.0332 -0.0848,0.0658 -0.17391,0.60975 -0.19809,1.20884 -0.0363,0.8987 0.036,1.24028 0.41316,1.95269 0.69079,1.30482 1.1882,1.49326 3.77902,1.43172 l 2.11306,-0.0502 0.64998,-0.65005 z m 51.62737,0.39861 c 0.95893,-0.58469 1.17206,-1.09727 1.17364,-2.82252 l 0.001,-1.53921 -3.6149,0.0278 c -1.98819,0.0153 -3.67839,0.067 -3.75601,0.11498 -0.24121,0.14908 -0.16082,2.63646 0.10152,3.14065 0.26746,0.51408 0.90886,1.14695 1.31158,1.29416 0.14247,0.0521 1.1527,0.10054 2.24497,0.10768 1.67934,0.011 2.07114,-0.039 2.5378,-0.3235 z m 1.3258,-8.21038 c 0.0458,-0.75984 0.0889,-1.55637 0.0958,-1.77008 0.0117,-0.36474 0.0865,-0.38854 1.2213,-0.38854 1.09371,0 1.20883,-0.0329 1.20883,-0.34539 0,-0.30662 -0.11512,-0.34538 -1.02595,-0.34538 -0.56427,0 -1.07476,0.079 -1.13441,0.17551 -0.21339,0.34526 -0.4299,-0.0357 -0.4245,-0.74694 0.005,-0.63882 0.0324,-0.68828 0.2349,-0.42154 0.33441,0.44053 1.71162,0.59343 2.2381,0.24846 0.22843,-0.14967 0.83273,-0.29594 1.34291,-0.32505 0.87797,-0.0501 0.92455,-0.076 0.87094,-0.48465 -0.0798,-0.60848 -0.0502,-1.93462 0.0779,-3.49052 0.10764,-1.30701 0.10144,-1.33565 -0.3316,-1.53295 -0.24271,-0.11059 -0.63571,-0.15227 -0.87335,-0.0926 -0.46478,0.11665 -0.58443,0.61771 -0.69635,2.91585 -0.0266,0.54699 -0.11964,0.9744 -0.20668,0.9498 -0.0885,-0.025 -0.1374,-1.02304 -0.11094,-2.26561 l 0.0473,-2.22088 -1.29931,0.0656 -1.29931,0.0656 0,-0.48989 c 0,-0.38459 0.065,-0.47118 0.30221,-0.40286 0.16621,0.0479 0.72961,0.11139 1.252,0.14116 0.87272,0.0497 0.95427,0.0226 1.00498,-0.33443 0.0524,-0.36911 -0.002,-0.38855 -1.07932,-0.38855 -0.6412,0 -1.13449,0.0751 -1.13449,0.17268 0,0.095 -0.0777,0.1727 -0.17269,0.1727 -0.10519,0 -0.17269,-0.78191 -0.17269,-2.00033 0,-1.52336 -0.0515,-1.98324 -0.21587,-1.92868 -0.15239,0.0506 -0.23016,0.66408 -0.26451,2.08668 l -0.0487,2.01501 -3.34965,0 c -2.81487,0 -3.39296,0.0433 -3.62101,0.27138 -0.401,0.401 -0.40322,7.06189 -0.002,7.63395 0.26212,0.37424 0.35254,0.3838 3.62649,0.3838 l 3.35767,0 0,2.0435 c 0,1.12393 0.0531,2.0966 0.118,2.16151 0.24886,0.24886 0.38412,-0.19619 0.46448,-1.52831 z m -0.0644,-6.90761 c 0,-1.86467 0.21592,-2.41521 0.40532,-1.03342 0.12697,0.9264 -0.0465,2.84667 -0.25723,2.84667 -0.0814,0 -0.14809,-0.81596 -0.14809,-1.81325 z m -43.51792,6.12031 c 0,-0.7687 -0.0638,-1.17959 -0.17269,-1.11229 -0.31011,0.19166 -0.20445,2.33131 0.11512,2.33131 0.0316,0 0.0576,-0.54855 0.0576,-1.21902 z m -16.61114,-1.67353 c -0.0483,-0.2507 -0.24872,-0.30221 -1.17595,-0.30221 -0.92723,0 -1.12768,0.0515 -1.17596,0.30221 -0.051,0.26505 0.0935,0.30221 1.17596,0.30221 1.08243,0 1.227,-0.0372 1.17595,-0.30221 z M 366.0704,469.069 c 0.19058,-0.11778 0.23025,-0.74379 0.19747,-3.11574 -0.0226,-1.63259 -0.0827,-3.07704 -0.13372,-3.20988 -0.0647,-0.16869 -0.39615,-0.24156 -1.09872,-0.24156 -0.86902,0 -1.02164,0.0492 -1.12066,0.36117 -0.0848,0.26706 -0.21154,0.33583 -0.48653,0.26391 -0.20455,-0.0535 -0.66332,-0.0507 -1.0195,0.006 -0.52574,0.0841 -0.64759,0.17665 -0.64759,0.49206 0,0.21368 0.11657,0.48525 0.25904,0.60349 0.32919,0.2732 0.32833,0.79631 -0.003,1.73494 -0.21605,0.61235 -0.22723,0.91833 -0.0639,1.74861 0.17469,0.88792 0.24617,1.00639 0.60725,1.00639 0.2251,0 0.40926,-0.0777 0.40926,-0.17269 0,-0.095 -0.0704,-0.17269 -0.15652,-0.17269 -0.0861,0 -0.11588,-0.15542 -0.0662,-0.34538 0.10607,-0.40564 0.39541,-0.46456 0.39541,-0.0805 0,0.14567 0.22814,0.48787 0.50698,0.76045 0.41426,0.40494 0.66019,0.49677 1.34462,0.50208 0.4607,0.004 0.94496,-0.0598 1.07613,-0.14091 z m -2.58234,-4.75393 c 0,-0.23745 0.0777,-0.43172 0.17269,-0.43172 0.095,0 0.17269,0.19427 0.17269,0.43172 0,0.23745 -0.0777,0.43173 -0.17269,0.43173 -0.095,0 -0.17269,-0.19428 -0.17269,-0.43173 z m 31.99085,-1.5787 c 0.39265,-0.0649 0.64759,-0.2032 0.64759,-0.35131 0,-0.18627 -0.15376,-0.21871 -0.64759,-0.13664 -0.90895,0.15106 -1.07931,0.21746 -1.07931,0.42068 0,0.20484 0.17936,0.21602 1.07931,0.0673 z m 12.01098,-1.24079 c 0.0439,-0.75042 -0.0222,-0.9902 -0.41403,-1.504 -0.25643,-0.33619 -0.59075,-0.59082 -0.74295,-0.56585 -0.1522,0.025 -0.38565,-0.0228 -0.51879,-0.10619 -0.1636,-0.10246 -0.31752,-0.0484 -0.47489,0.16683 -0.28857,0.39463 -0.29172,0.53593 -0.017,0.76107 0.11872,0.0973 0.46842,0.37925 0.7771,0.62658 0.30868,0.24732 0.56124,0.51542 0.56124,0.59577 0,0.0804 0.0782,0.35175 0.17376,0.6031 0.27,0.71018 0.59711,0.4221 0.65554,-0.57731 z m -20.29702,0.22292 c 0.35448,-0.24088 0.6445,-0.55172 0.6445,-0.69076 0,-0.3146 -0.0763,-0.3141 -1.15953,0.008 -0.88176,0.26186 -1.28743,0.71374 -0.87543,0.97516 0.37367,0.2371 0.71837,0.16471 1.39046,-0.29198 z m 4.96175,0.0926 c 0,-0.095 -0.15542,-0.1727 -0.34538,-0.1727 -0.18995,0 -0.34538,0.0777 -0.34538,0.1727 0,0.095 0.15543,0.17269 0.34538,0.17269 0.18996,0 0.34538,-0.0777 0.34538,-0.17269 z m -26.07621,-0.32691 c 0,-0.1798 -0.12292,-0.37407 -0.27316,-0.43172 -0.48189,-0.18493 -1.55045,-0.11212 -1.87885,0.12801 -0.53761,0.39312 -0.14604,0.63062 1.03971,0.63062 0.97622,0 1.1123,-0.04 1.1123,-0.32691 z m 25.11779,0.16412 c -0.0902,-0.0895 -0.51376,-0.24106 -0.94117,-0.33673 -0.93182,-0.20858 -1.36351,0.0515 -0.4984,0.30022 0.78205,0.22488 1.65163,0.24693 1.43957,0.0365 z m -4.16596,-1.2416 c 0.70227,-0.18035 0.85753,-0.17501 0.98672,0.0339 0.13101,0.21191 0.19484,0.20643 0.43901,-0.0377 0.35206,-0.35196 0.18694,-0.66415 -0.35128,-0.66415 -0.43336,0 -0.72754,-0.44083 -0.38714,-0.58011 0.14732,-0.0603 0.13223,-0.13665 -0.0529,-0.26755 -0.36913,-0.26106 -0.48048,-0.23357 -0.60175,0.14851 -0.0721,0.22723 -0.34307,0.38337 -0.83192,0.47939 -0.66226,0.13008 -0.72978,0.19249 -0.78075,0.72169 -0.062,0.64344 -0.21624,0.62724 1.57998,0.16596 z m 4.37943,0.0315 c 0.73015,-0.4452 0.8774,-0.77596 0.84951,-1.90818 -0.0224,-0.91025 -0.0502,-0.96418 -0.66581,-1.29516 -0.55251,-0.29704 -0.69372,-0.31332 -1.00913,-0.11634 -0.29184,0.18226 -0.46872,0.18678 -0.8662,0.0222 -0.39203,-0.16239 -0.55514,-0.16067 -0.75834,0.008 -0.54061,0.44867 -0.3009,0.69063 0.68419,0.69063 0.74777,0 1.01599,0.0783 1.29518,0.37794 0.78873,0.8466 0.28238,1.44303 -1.06748,1.25738 -1.09471,-0.15056 -1.06048,-0.15292 -1.13764,0.0785 -0.034,0.10205 0.0806,0.23767 0.25472,0.30138 0.17411,0.0637 0.53623,0.29687 0.80472,0.51816 0.59369,0.48932 0.90084,0.50178 1.61628,0.0655 z m -8.58031,-1.04473 c 0,-0.69076 -0.074,-1.20883 -0.17269,-1.20883 -0.0987,0 -0.1727,0.51807 -0.1727,1.20883 0,0.69076 0.074,1.20883 0.1727,1.20883 0.0987,0 0.17269,-0.51807 0.17269,-1.20883 z m -8.66641,-5.52609 c 0.1261,-2.59969 -0.5068,-3.10842 -3.86707,-3.10842 l -2.18582,0 -0.67044,0.67044 c -0.52107,0.52107 -0.67045,0.8039 -0.67045,1.26941 0,0.32943 -0.0807,0.83062 -0.17946,1.11376 -0.11346,0.32548 -0.12116,0.66837 -0.0209,0.93239 l 0.15853,0.4176 3.6906,-0.0863 3.6906,-0.0863 0.0544,-1.12249 z m 8.37343,-1.04939 c -0.0109,-2.32589 -0.0853,-2.74736 -0.61068,-3.458 -0.51802,-0.70067 -1.36944,-0.89335 -3.63037,-0.82158 -2.24758,0.0713 -2.5116,0.19488 -3.08494,1.44345 -0.25356,0.55217 -0.31796,1.12673 -0.32099,2.86378 -0.002,1.19515 0.0284,2.20539 0.0677,2.24497 0.0393,0.0396 1.76305,0.0331 3.83046,-0.0144 l 3.75892,-0.0863 -0.0101,-2.17188 z m 43.8109,1.02785 c 0,-1.33329 -0.13125,-1.69438 -0.91805,-2.52563 l -0.53122,-0.56125 -2.19986,0 c -1.20992,0 -2.39602,0.0746 -2.63577,0.16574 -0.23975,0.0912 -0.63697,0.46955 -0.88271,0.84089 -0.39601,0.59841 -0.44098,0.82005 -0.39561,1.94972 l 0.0512,1.27456 3.62649,0.0863 c 1.99457,0.0475 3.68478,0.0623 3.75601,0.033 0.0712,-0.0294 0.12952,-0.59786 0.12952,-1.26336 z m -8.28913,-1.09107 c 0,-2.05642 -0.0419,-2.39243 -0.36682,-2.94316 -0.59007,-1.0001 -1.38567,-1.29767 -3.46866,-1.29735 -2.04574,3.8e-4 -2.73917,0.24529 -3.37089,1.19093 -0.35805,0.53596 -0.392,0.78398 -0.392,2.86377 0,1.25235 0.0518,2.32881 0.11513,2.39213 0.0633,0.0633 1.77295,0.11513 3.79918,0.11513 l 3.68406,0 0,-2.32145 z m 1.7269,-2.09235 c 0,-0.14807 -0.0777,-0.2212 -0.17269,-0.1625 -0.095,0.0587 -0.17269,0.17986 -0.17269,0.26923 0,0.0894 0.0777,0.1625 0.17269,0.1625 0.095,0 0.17269,-0.12115 0.17269,-0.26923 z"
       id="path8851"
       inkscape:connector-curvature="0"
       inkscape:export-xdpi="90"
       inkscape:export-ydpi="90" />
    <g
       id="g8972"
       style="fill:#ffffff"
       transform="translate(1.0101513,1.0101532)"
       inkscape:export-xdpi="90"
       inkscape:export-ydpi="90">
      <path
         style="fill:#ffffff"
         d="m 343.51174,555.14718 c -0.33305,-0.26319 -0.8984,-1.85666 -1.25633,-3.54105 -0.47769,-2.24791 -1.24688,-4.1317 -2.89177,-7.08209 -2.60458,-4.67175 -5.4202,-11.47617 -6.47483,-15.64754 -0.40591,-1.60546 -0.98304,-4.83983 -1.28253,-7.18749 -0.65631,-5.14488 -1.31333,-6.2863 -4.44334,-7.71926 -1.81416,-0.83056 -2.92371,-1.01924 -7.30815,-1.24279 -3.7655,-0.19199 -5.84497,-0.49225 -7.65755,-1.10568 -5.31646,-1.79926 -11.59349,-5.75617 -17.60953,-11.1007 -1.57912,-1.40285 -5.13395,-4.30587 -7.89964,-6.45116 -5.51136,-4.27507 -5.38052,-4.07352 -5.76589,-8.88183 -0.20898,-2.60742 0.3822,-7.70857 1.25578,-10.83598 0.91495,-3.27547 9.59104,-18.84305 13.31912,-23.89857 0.96797,-1.31264 2.77177,-4.49958 4.00844,-7.08209 2.45235,-5.1212 3.7419,-6.65778 6.67453,-7.9531 3.87444,-1.71131 10.94205,-1.2244 15.57048,1.0727 3.43109,1.70287 3.60777,2.14292 3.78084,9.41726 0.13472,5.66236 0.0749,6.41483 -0.63757,8.02557 -0.71737,1.62174 -0.90247,1.77739 -2.11358,1.77739 -1.02276,0 -1.56341,-0.28054 -2.35607,-1.22257 -0.5658,-0.67241 -1.17796,-1.61507 -1.36035,-2.09479 -0.1994,-0.52448 -0.75673,-0.95345 -1.3979,-1.07595 -1.83219,-0.35007 -5.24925,-1.22146 -5.89225,-1.5026 -0.50221,-0.21958 -0.83862,0.40553 -1.83442,3.40858 -0.67069,2.02261 -1.77792,4.94387 -2.46051,6.49167 -1.20094,2.72315 -1.23196,2.92372 -0.95889,6.19991 0.15521,1.86214 0.3147,5.9753 0.35442,9.14035 l 0.0722,5.75464 2.52967,-0.66026 c 3.21952,-0.84032 7.73164,-0.88042 10.38552,-0.0923 2.69583,0.80058 5.48331,2.6241 7.7689,5.08229 l 1.84337,1.98258 2.82998,-0.58455 c 3.48649,-0.72015 10.8027,-0.75522 13.3897,-0.0642 2.93339,0.78358 5.14733,2.05287 7.54866,4.32775 2.56037,2.42556 5.80491,4.03341 8.60872,4.2661 1.80646,0.14991 2.09945,0.0592 3.12719,-0.96858 0.62369,-0.62369 1.32487,-1.84287 1.55818,-2.7093 0.50921,-1.89109 0.19269,-7.26905 -0.55653,-9.45591 -0.28854,-0.8422 -0.70909,-2.24516 -0.93457,-3.1177 -0.30995,-1.19944 -0.64133,-1.6445 -1.35849,-1.8245 -1.29777,-0.32572 -2.2755,-2.39529 -3.02741,-6.40813 -0.67474,-3.601 -0.46717,-4.942 0.87626,-5.66098 0.64504,-0.34521 0.70457,-0.58973 0.40115,-1.64771 -0.54421,-1.89756 -0.42438,-7.57856 0.20452,-9.69558 2.13786,-7.19657 10.16328,-11.72379 18.74903,-10.57652 8.76874,1.17172 13.6123,7.34676 13.6123,17.35427 0,2.32089 0.0844,2.62746 0.72323,2.62746 1.26734,0 2.37405,1.24715 2.59971,2.92963 0.38144,2.84381 -2.77527,10.55573 -4.41581,10.78792 -0.84775,0.11999 -0.88841,0.24543 -0.68255,2.10549 0.1204,1.08784 0.33252,3.18377 0.47136,4.65761 0.33253,3.52964 1.37918,6.25085 3.01352,7.83492 1.09342,1.05978 1.69262,1.31783 3.38623,1.45827 1.94711,0.16147 2.24646,0.0569 5.5684,-1.94577 6.34842,-3.82718 13.08087,-5.82417 16.79677,-4.98229 1.0035,0.22735 2.38355,0.64392 3.06679,0.9257 1.2163,0.50163 1.28022,0.47613 3.06252,-1.22209 3.75391,-3.57681 6.97184,-5.32173 11.24224,-6.0961 2.97095,-0.53873 5.83996,-0.22062 9.11009,1.01012 1.67704,0.63116 2.84805,0.84953 3.69933,0.68983 1.23828,-0.23231 2.84307,-1.40236 2.84307,-2.07289 0,-0.19299 -0.673,-1.31164 -1.49555,-2.48587 -3.47163,-4.95591 -5.012,-11.4018 -5.01291,-20.97726 -3.9e-4,-5.14849 -0.11499,-6.4357 -0.67131,-7.54703 -0.62894,-1.25642 -0.7774,-1.3348 -2.38388,-1.25869 -1.49179,0.0707 -1.88033,0.28242 -3.00679,1.63852 -1.64172,1.97643 -3.07364,2.73198 -6.17481,3.25816 -2.15185,0.3651 -2.50439,0.54267 -2.69585,1.35784 -0.44125,1.87878 -5.5251,2.43407 -8.44775,0.92271 -3.28563,-1.69907 -3.87634,-8.47818 -1.12233,-12.88018 1.5443,-2.46841 3.72684,-3.6319 10.11945,-5.39461 8.98176,-2.47665 13.88834,-1.98585 18.11217,1.81174 1.0182,0.91545 2.34756,2.58579 2.95414,3.71188 0.60658,1.12608 2.51471,3.85623 4.24028,6.067 8.43628,10.80834 15.77472,23.74816 16.67714,29.40667 0.81457,5.10767 0.84865,6.91206 0.1712,9.06584 -0.6117,1.94476 -0.89988,2.27698 -3.78486,4.36317 -3.07341,2.22244 -5.69553,4.79126 -10.56842,10.3536 -6.10269,6.96612 -15.13879,11.61343 -24.66511,12.68538 -3.97773,0.44759 -4.10988,0.49356 -5.29332,1.84132 -0.66755,0.76025 -2.64484,4.36251 -4.39396,8.00502 -3.51704,7.32416 -5.00006,9.77952 -11.83836,19.60013 -2.56567,3.6846 -5.31154,7.90515 -6.10193,9.37899 -0.7904,1.47384 -1.70225,2.89504 -2.02632,3.15823 -0.46071,0.37415 -7.44589,0.47852 -32.0252,0.47852 -24.57061,0 -31.56822,-0.10451 -32.04151,-0.47852 z"
         id="path8986"
         inkscape:connector-curvature="0" />
      <path
         style="fill:#ffffff"
         d="m 343.74674,554.95117 c -0.22858,-0.15538 -0.78347,-1.80208 -1.23307,-3.65933 -0.56968,-2.35327 -1.4071,-4.39848 -2.76273,-6.74739 -4.09641,-7.09783 -6.99764,-15.40791 -7.68627,-22.01596 -0.8387,-8.04808 -2.763,-9.62983 -12.36101,-10.16061 -3.95235,-0.21856 -6.01611,-0.51835 -7.69456,-1.11774 -5.34498,-1.90874 -11.096,-5.57829 -17.42205,-11.11649 -1.81396,-1.58805 -5.39449,-4.51717 -7.95672,-6.50917 -4.06495,-3.16026 -4.73286,-3.83973 -5.2413,-5.33191 -1.00178,-2.94006 -0.46491,-9.70351 1.1254,-14.17785 1.35906,-3.8237 9.91459,-18.97717 13.33458,-23.61806 0.94963,-1.28864 2.69915,-4.38945 3.88781,-6.89068 2.43735,-5.12877 3.66388,-6.61185 6.4815,-7.83722 4.93201,-2.14492 14.7838,-0.73589 17.87715,2.55684 0.80158,0.85323 0.92226,1.45318 1.17039,5.81861 0.28341,4.98617 -0.08,9.09334 -0.92426,10.44518 -1.14112,1.82722 -3.29931,0.97355 -4.6579,-1.84243 -0.72037,-1.49312 -0.82822,-1.55616 -3.38433,-1.97829 -1.45213,-0.23982 -3.23514,-0.68459 -3.96223,-0.98839 -1.01129,-0.42255 -1.35914,-0.44284 -1.48009,-0.0863 -1.6144,4.75832 -3.83535,10.62699 -4.29166,11.34034 -0.52084,0.81426 -0.53528,1.82626 -0.12442,8.72329 0.25563,4.29119 0.34719,8.6571 0.20348,9.70202 -0.14371,1.04492 -0.18066,1.89985 -0.0821,1.89985 0.0986,0 0.9291,-0.26457 1.84563,-0.58795 2.76779,-0.97653 6.4642,-1.346 9.14574,-0.91415 3.62684,0.58408 6.3386,2.03886 9.30195,4.9902 l 2.59973,2.58921 2.75969,-0.60244 c 3.87194,-0.84523 10.91354,-0.82346 13.86134,0.0429 2.93517,0.86261 4.45079,1.7776 7.16585,4.32606 2.49774,2.34448 5.52523,3.87832 8.21294,4.161 2.21679,0.23315 3.40089,-0.30706 4.61185,-2.10399 0.76943,-1.14177 0.87283,-1.7663 0.87283,-5.27224 0,-5.28798 -1.3913,-10.22869 -3.21597,-11.42037 -1.50208,-0.981 -1.99806,-2.03732 -2.71446,-5.78117 -0.76103,-3.97711 -0.74266,-4.22643 0.39536,-5.36445 0.95105,-0.95105 0.96395,-1.03643 0.57685,-3.81955 -0.54186,-3.8958 0.0182,-7.62327 1.58797,-10.56843 5.33605,-10.01145 22.48753,-10.71705 28.13306,-1.15738 1.50003,2.54003 2.10852,4.92288 2.36859,9.27546 0.21603,3.61569 0.31617,4.0293 1.00556,4.15349 1.50076,0.27035 2.4883,1.60917 2.4883,3.37342 0,2.9287 -2.92972,9.70381 -4.19616,9.70381 -0.40439,0 -0.82027,0.13755 -0.92417,0.30566 -0.1039,0.16812 0.0494,2.5783 0.34077,5.35596 0.71286,6.79663 1.91803,9.35712 5.01289,10.65023 2.20045,0.91941 3.86057,0.67461 6.43006,-0.94817 3.24515,-2.0495 6.44898,-3.61032 9.60628,-4.67993 3.41316,-1.1563 8.49438,-1.27836 10.49055,-0.25202 0.71663,0.36846 1.46542,0.66992 1.66397,0.66992 0.19856,0 1.49033,-1.0348 2.8706,-2.29957 5.77295,-5.28986 12.54281,-6.93887 19.03222,-4.6359 3.12202,1.10795 5.17523,1.0672 6.46524,-0.12834 0.55711,-0.51632 1.01294,-1.09644 1.01294,-1.28916 0,-0.19273 -0.75862,-1.4817 -1.68581,-2.86439 -3.45919,-5.15854 -4.80087,-10.67212 -4.81591,-19.79072 -0.0145,-8.77901 -0.64219,-10.6459 -3.41469,-10.15576 -2.20782,0.39031 -2.48354,0.54402 -3.29547,1.83708 -1.07067,1.70514 -3.58449,2.99284 -6.32826,3.24164 -1.81343,0.16443 -2.28037,0.34051 -2.28037,0.85991 0,0.35922 -0.36311,0.9813 -0.80691,1.38239 -1.20901,1.09266 -5.98859,1.04392 -7.49138,-0.0764 -1.93104,-1.43957 -2.61284,-3.0829 -2.60404,-6.27644 0.009,-3.33751 0.87114,-5.61199 2.85845,-7.54287 1.70185,-1.65353 2.82002,-2.13556 8.83125,-3.80703 11.39674,-3.16896 16.73864,-1.43196 21.51623,6.99635 0.58152,1.02588 2.3603,3.50178 3.95283,5.50199 5.75508,7.22835 11.87174,17.25757 14.70881,24.1174 1.97251,4.76936 2.74299,10.02657 1.85711,12.6715 -0.57129,1.70566 -1.49068,2.69682 -4.74717,5.11774 -1.48209,1.10181 -4.15223,3.61675 -5.93365,5.58877 -5.55763,6.15227 -8.10507,8.54431 -11.48912,10.78821 -5.55233,3.68167 -11.37744,5.72106 -17.88259,6.26077 -3.05738,0.25366 -3.20902,0.31251 -4.50677,1.74897 -0.75012,0.83029 -2.78792,4.48126 -4.61633,8.27074 -3.69718,7.6626 -4.42712,8.87081 -11.54474,19.10904 -2.80965,4.0415 -5.75253,8.60658 -6.53973,10.14462 l -1.43128,2.79644 -31.75923,0.0911 c -17.46757,0.0501 -31.94625,-0.036 -32.17484,-0.19141 z"
         id="path8984"
         inkscape:connector-curvature="0" />
      <path
         style="fill:#ffffff"
         d="m 343.44676,554.19232 c -0.10689,-0.36966 -0.48253,-1.87798 -0.83475,-3.35182 -0.37627,-1.57446 -1.4147,-4.04476 -2.5177,-5.98928 -4.65053,-8.19869 -7.15623,-15.49347 -7.96108,-23.17697 -0.41652,-3.97633 -0.93868,-5.23582 -2.87574,-6.93658 -1.80243,-1.58256 -4.67824,-2.38198 -8.63773,-2.40113 -1.78998,-0.009 -4.42369,-0.25569 -5.85269,-0.54897 -5.31272,-1.09034 -13.66471,-5.96377 -19.79655,-11.5514 -1.36856,-1.24711 -4.77581,-4.04165 -7.57166,-6.2101 -2.8897,-2.24125 -5.34813,-4.45465 -5.69691,-5.12911 -1.3211,-2.55474 -1.05704,-7.81682 0.68453,-13.64095 1.22281,-4.0893 10.28069,-20.49217 13.71586,-24.83798 0.8434,-1.06698 2.49237,-3.97327 3.66439,-6.45844 2.99861,-6.35828 4.73483,-7.96458 9.65504,-8.93257 4.40097,-0.86584 12.13074,0.8991 14.1851,3.23889 1.06595,1.21404 1.16472,1.58826 1.42425,5.39599 0.50895,7.46694 -0.17786,11.33432 -2.06039,11.60189 -1.08571,0.15431 -2.55843,-1.12703 -3.44465,-2.99705 -0.58006,-1.22397 -0.81436,-1.36138 -2.73745,-1.60548 -1.1567,-0.14682 -2.85689,-0.53502 -3.77819,-0.86265 -0.9213,-0.32764 -1.81903,-0.59571 -1.99495,-0.59571 -0.17592,0 -0.58619,0.90441 -0.91171,2.00979 -0.81901,2.78112 -3.27448,9.10766 -3.92591,10.11509 -0.4447,0.68773 -0.46751,1.58286 -0.13167,5.16801 0.2234,2.38491 0.40677,6.72497 0.40749,9.64457 l 0.001,5.30837 0.86133,-0.25096 c 4.96197,-1.44569 8.51987,-1.67603 11.97827,-0.77547 3.07717,0.80129 5.11087,2.05984 7.80466,4.82989 l 2.25979,2.32376 3.38209,-0.62073 c 3.93648,-0.72249 9.18363,-0.80363 12.06118,-0.18651 3.23957,0.69477 5.04136,1.64939 7.75539,4.10895 3.17944,2.88134 6.11781,4.36171 9.08325,4.57621 2.78244,0.20126 3.91899,-0.45803 4.99916,-2.89994 0.66587,-1.50532 0.75045,-2.3086 0.59112,-5.61425 -0.10226,-2.12166 -0.37658,-4.28824 -0.6096,-4.81462 -0.23302,-0.52637 -0.69474,-1.93074 -1.02604,-3.12081 -0.48132,-1.729 -0.78999,-2.21088 -1.53615,-2.39815 -1.1484,-0.28823 -2.06405,-1.97383 -2.7207,-5.00847 -0.80787,-3.73348 -0.68973,-5.36618 0.44826,-6.19515 0.94318,-0.68705 0.95897,-0.76974 0.52942,-2.77264 -0.70935,-3.30759 -0.29761,-7.84111 0.96685,-10.64551 2.43068,-5.39096 7.93235,-8.52366 14.96929,-8.52366 4.83203,0 7.87375,0.95837 10.48065,3.3022 3.52179,3.16639 4.8372,6.37188 5.25583,12.80777 l 0.23863,3.66847 1.19022,0.3511 c 0.74961,0.22113 1.39138,0.77479 1.73362,1.49562 0.47668,1.00402 0.46435,1.45048 -0.10047,3.63675 -0.95247,3.68681 -2.92242,7.4404 -3.98398,7.59117 -1.00675,0.14298 -1.01148,0.20162 -0.47383,5.87125 0.57346,6.04733 1.92774,9.09125 4.67742,10.51317 2.14622,1.10985 4.3864,0.83165 7.18518,-0.89233 9.24711,-5.69594 16.42039,-7.05153 21.44381,-4.05239 0.10864,0.0649 1.05611,-0.68132 2.10549,-1.65819 6.33758,-5.89968 13.31855,-7.72722 20.1306,-5.26998 3.1509,1.1366 4.90476,1.0582 6.33246,-0.28305 1.19215,-1.11996 1.13781,-1.99598 -0.22968,-3.70333 -1.54072,-1.92362 -3.31258,-5.95448 -4.28522,-9.74859 -0.66057,-2.57677 -0.82336,-4.47987 -0.89586,-10.47288 -0.076,-6.28496 -0.19118,-7.53396 -0.81171,-8.80476 -0.70746,-1.44883 -0.76738,-1.48049 -2.7682,-1.46263 -1.92868,0.0172 -2.12172,0.11048 -3.39099,1.63851 -1.66565,2.00522 -2.93668,2.67885 -6.1862,3.27859 -2.01003,0.37097 -2.56694,0.62388 -2.66896,1.21206 -0.22036,1.27025 -1.2282,1.70031 -3.98469,1.70031 -3.22597,0 -4.61943,-0.65951 -5.6463,-2.67235 -0.86257,-1.69078 -1.03667,-5.34605 -0.36911,-7.74971 0.58194,-2.0954 2.61227,-4.528 4.57633,-5.48304 0.94747,-0.46072 4.1269,-1.48273 7.06541,-2.27114 4.70327,-1.26189 5.73419,-1.41377 8.61335,-1.26896 5.29025,0.26609 9.14623,2.60828 11.33765,6.88671 0.50626,0.9884 2.3107,3.57241 4.00987,5.74223 6.59592,8.42296 13.47221,19.73586 15.86688,26.10427 1.15303,3.06638 2.11088,7.33457 2.09885,9.3525 -0.0152,2.55131 -1.17728,4.35183 -4.25012,6.58512 -3.03787,2.20787 -6.05514,5.12211 -10.7846,10.41633 -6.9668,7.79873 -15.09765,11.96123 -25.18227,12.89178 -3.53381,0.32608 -3.61316,0.35551 -4.88359,1.81124 -0.71028,0.81388 -2.80474,4.59554 -4.65436,8.40369 -3.6484,7.51167 -5.45465,10.48329 -12.12492,19.94782 -2.40312,3.40983 -5.02802,7.45811 -5.8331,8.99617 l -1.46378,2.79649 -31.99088,0.0979 c -30.22622,0.0925 -32.00161,0.0608 -32.18524,-0.57422 z"
         id="path8982"
         inkscape:connector-curvature="0" />
      <path
         style="fill:#ffffff"
         d="m 343.77011,554.462 c -0.13531,-0.21894 -0.583,-1.80896 -0.99487,-3.5334 -0.48358,-2.02469 -1.34709,-4.15576 -2.4377,-6.01605 -4.46979,-7.62423 -7.40518,-16.12366 -8.06683,-23.35746 -0.40043,-4.37789 -1.55347,-6.57414 -4.16425,-7.93185 -1.99113,-1.03546 -3.36596,-1.29205 -8.63572,-1.61166 -3.09961,-0.18799 -5.93409,-0.5769 -7.0821,-0.9717 -5.08307,-1.7481 -11.38562,-5.69452 -16.84389,-10.54704 -1.47384,-1.31027 -4.83305,-4.06716 -7.46491,-6.12641 -2.63186,-2.05926 -5.17588,-4.16303 -5.65337,-4.67505 -2.0534,-2.20186 -2.00945,-8.18573 0.10634,-14.47858 1.52572,-4.53786 9.1579,-18.36496 13.40238,-24.28089 1.17046,-1.63136 2.95401,-4.7731 3.96346,-6.98162 2.24601,-4.91396 3.33677,-6.32519 5.90518,-7.64012 3.61955,-1.85307 11.03399,-1.54449 15.71082,0.65388 2.85927,1.34402 3.02758,1.69956 3.39694,7.17595 0.38741,5.74395 -0.0349,9.39747 -1.22361,10.5862 -0.72595,0.72595 -0.8681,0.743 -1.80339,0.21639 -0.55843,-0.31442 -1.39857,-1.33371 -1.86697,-2.26509 -0.8513,-1.69273 -0.85295,-1.69368 -4.0874,-2.34851 -1.77966,-0.3603 -3.58794,-0.84358 -4.01839,-1.07395 -1.05931,-0.56693 -1.22865,-0.29453 -2.94234,4.73306 -0.78944,2.31604 -1.87095,5.13233 -2.40336,6.25844 l -0.96802,2.04746 0.48027,6.90444 c 0.26415,3.79744 0.37301,8.1733 0.24192,9.72412 -0.13109,1.55083 -0.11135,2.81718 0.0439,2.81412 0.15522,-0.003 1.02404,-0.26395 1.9307,-0.57975 3.3061,-1.15154 6.90657,-1.43859 9.9735,-0.79514 3.61967,0.75942 5.80319,2.02892 8.71714,5.06811 l 2.34676,2.44764 2.62984,-0.63333 c 3.76796,-0.90742 11.11771,-0.90922 14.11431,-0.003 2.84609,0.86026 4.37957,1.78588 7.10865,4.29082 4.23818,3.89009 9.73146,5.36106 12.04888,3.22641 1.64944,-1.51936 2.08955,-3.03482 2.08098,-7.1655 -0.006,-3.00552 -0.2162,-4.40796 -1.06358,-7.10437 -0.89604,-2.85122 -1.24389,-3.474 -2.29866,-4.11545 -1.42954,-0.86935 -1.82259,-1.73182 -2.64279,-5.79903 -0.6661,-3.30303 -0.45118,-4.8927 0.70226,-5.19433 0.72306,-0.18909 0.75653,-0.37372 0.46109,-2.54361 -0.81272,-5.96915 -0.11248,-9.8096 2.42823,-13.3175 4.50767,-6.22364 15.88008,-8.00941 22.61559,-3.55125 3.98051,2.63466 5.83027,6.50236 6.12474,12.80635 0.19276,4.12676 0.46838,4.97661 1.61399,4.97661 1.08746,0 1.92653,1.27918 1.92653,2.93703 0,2.95176 -2.4821,8.72853 -3.99803,9.30488 -0.49731,0.18908 -0.98769,0.48361 -1.08973,0.65451 -0.35158,0.58883 0.84949,10.21207 1.46873,11.76777 0.9726,2.44343 2.30489,3.92039 4.18356,4.63786 2.29494,0.87645 4.13944,0.584 6.72322,-1.06597 5.76579,-3.68197 11.88864,-5.82414 15.9631,-5.58493 1.42407,0.0836 3.17556,0.44772 3.89219,0.80913 0.71663,0.36141 1.48591,0.65711 1.70952,0.65711 0.22361,0 1.18767,-0.75412 2.14237,-1.67583 2.33387,-2.25321 5.30306,-4.2158 7.9631,-5.26349 3.10466,-1.2228 8.93117,-1.23615 11.95647,-0.0274 2.59148,1.03544 4.41238,1.06611 5.99517,0.10099 1.88771,-1.15104 1.88713,-1.8835 -0.004,-4.70328 -3.54035,-5.27959 -4.93894,-10.9998 -4.89326,-20.01332 0.0453,-8.93354 -0.73423,-10.83953 -4.20606,-10.28437 -1.58605,0.25363 -2.21763,0.71506 -3.47226,2.53686 -0.90084,1.30807 -3.15346,2.28776 -5.86135,2.54917 -2.0074,0.19379 -2.31226,0.32987 -2.41879,1.0797 -0.1883,1.32547 -1.51667,2.01323 -3.88715,2.01256 -4.49294,-0.001 -6.70448,-2.57448 -6.41516,-7.46431 0.1859,-3.14209 1.1332,-5.25936 3.1424,-7.02345 1.80343,-1.58344 2.76152,-1.95348 9.52743,-3.67975 4.74796,-1.21141 6.12822,-1.42073 8.32967,-1.26322 4.80834,0.34404 9.00165,3.13346 11.03985,7.34381 0.41543,0.85817 2.23363,3.4552 4.04045,5.77117 9.745,12.49111 16.76119,25.79023 17.62251,33.40333 0.36796,3.25234 -0.58762,5.26658 -3.52958,7.43987 -2.19655,1.62264 -7.11302,6.4051 -12.76001,12.41224 -6.23337,6.6309 -14.95695,10.80514 -24.04041,11.50335 -3.04737,0.23424 -3.28865,0.31987 -4.54442,1.61291 -0.77158,0.79447 -2.44771,3.69129 -4.00798,6.92689 -4.65237,9.64784 -5.28397,10.70121 -13.27589,22.14113 -2.54613,3.64461 -5.15348,7.73596 -5.79412,9.09187 l -1.16472,2.4653 -31.7516,0 c -21.56573,0 -31.83052,-0.1277 -31.99762,-0.39807 z"
         id="path8980"
         inkscape:connector-curvature="0" />
      <path
         style="fill:#ffffff"
         d="m 344.12116,554.56837 c -0.2332,-0.15539 -0.72679,-1.66066 -1.09687,-3.34505 -0.48469,-2.20605 -1.29992,-4.18666 -2.91505,-7.0821 -4.36576,-7.82649 -6.83257,-15.0569 -7.66703,-22.47267 -0.57042,-5.06929 -1.54844,-6.79882 -4.72283,-8.35191 -1.91312,-0.936 -2.77068,-1.08991 -7.40731,-1.32939 -4.17824,-0.21582 -5.85002,-0.47756 -8.22763,-1.28818 -5.04961,-1.72161 -11.74238,-5.96478 -17.11392,-10.85011 -1.36856,-1.24469 -4.72777,-4.00254 -7.4649,-6.12856 -2.73714,-2.12601 -5.28815,-4.39939 -5.66891,-5.05194 -2.04561,-3.50572 -0.77573,-10.68959 3.35591,-18.98491 3.04112,-6.10582 8.70601,-15.81313 11.24,-19.26079 1.03475,-1.40784 2.63642,-4.25595 3.55927,-6.32913 0.92285,-2.07318 2.31742,-4.50398 3.09905,-5.40178 1.69969,-1.95232 4.54294,-3.27625 7.63891,-3.55699 4.0128,-0.36386 10.93227,1.441 12.7339,3.32148 1.03773,1.08317 1.05579,1.18688 1.24817,7.16697 0.22845,7.10197 -0.15957,9.05163 -1.84028,9.24661 -0.73537,0.0853 -1.26941,-0.20223 -2.00979,-1.08211 -0.55456,-0.65907 -1.0083,-1.43372 -1.0083,-1.72145 0,-0.81044 -1.56564,-1.71501 -2.96837,-1.71501 -0.69672,0 -2.31932,-0.35458 -3.6058,-0.78797 -1.28648,-0.43338 -2.45906,-0.64871 -2.60574,-0.47852 -0.14668,0.1702 -0.91985,2.20439 -1.71815,4.52043 -0.7983,2.31603 -1.92047,5.2554 -2.4937,6.53192 -0.98472,2.19285 -1.02574,2.50978 -0.74313,5.74224 0.16451,1.88171 0.31135,6.24071 0.32632,9.68667 l 0.0272,6.26538 0.86134,-0.19166 c 0.47373,-0.10542 1.98107,-0.49126 3.34964,-0.85743 1.8254,-0.48839 3.35517,-0.6145 5.74223,-0.47339 4.46453,0.26393 6.92145,1.40717 10.51726,4.89384 l 2.7908,2.70608 3.39489,-0.63712 c 2.44892,-0.45959 4.67491,-0.58812 7.98867,-0.46126 5.94382,0.22754 7.94824,0.96816 11.68252,4.31662 3.48513,3.12506 6.26322,4.51203 9.4431,4.71451 2.31562,0.14745 2.45478,0.10408 3.71717,-1.15831 0.7641,-0.7641 1.50345,-2.02086 1.77138,-3.01104 0.58823,-2.17386 0.21212,-7.4056 -0.75516,-10.50432 -0.39435,-1.26329 -0.82439,-2.7817 -0.95566,-3.37425 -0.16256,-0.7338 -0.59071,-1.20007 -1.34267,-1.46221 -1.3984,-0.48748 -2.08695,-1.9378 -2.85822,-6.02037 -0.33255,-1.76029 -0.60463,-3.28464 -0.60463,-3.38746 0,-0.10282 0.52228,-0.67481 1.16062,-1.27112 1.12786,-1.05357 1.14818,-1.13357 0.72,-2.83403 -0.24947,-0.99074 -0.36842,-3.28569 -0.2742,-5.29016 0.13327,-2.83528 0.37274,-3.97051 1.20247,-5.70049 2.69092,-5.61054 9.58554,-8.84139 17.05004,-7.98974 3.65474,0.41698 6.03545,1.42436 8.30069,3.5124 3.05499,2.81598 4.323,6.13947 4.7144,12.35657 l 0.23955,3.80497 1.25911,0.32512 c 1.79781,0.46421 2.2631,1.68404 1.68807,4.42553 -0.68279,3.25522 -2.9204,7.73723 -3.86276,7.73723 -0.41905,0 -0.86732,0.17056 -0.99616,0.37903 -0.34674,0.56104 0.53036,9.31451 1.13444,11.32173 1.11275,3.6974 3.72519,5.905 6.99062,5.90734 1.64543,10e-4 2.38554,-0.24369 4.15204,-1.37371 5.64515,-3.61116 13.09727,-6.1959 16.65029,-5.7751 1.47441,0.17462 3.37249,0.81681 5.01549,1.69693 0.14158,0.0758 1.08904,-0.66438 2.10548,-1.64495 6.52989,-6.29945 13.8741,-8.08414 20.8858,-5.07538 2.1888,0.93923 3.95493,0.72014 5.64261,-0.69995 1.47663,-1.2425 1.45993,-2.03913 -0.0852,-4.06335 -1.60548,-2.1033 -3.1397,-5.54328 -4.16321,-9.33462 -0.65113,-2.41195 -0.8371,-4.35177 -0.9312,-9.71313 -0.0647,-3.6846 -0.22391,-7.41929 -0.35388,-8.2993 -0.30761,-2.08286 -1.47814,-3.56863 -2.80926,-3.56585 -1.81876,0.004 -3.84197,0.75558 -4.08379,1.51747 -0.63921,2.01398 -4.38608,3.83981 -7.87984,3.83981 -0.96058,0 -1.17534,0.18082 -1.36985,1.15342 -0.26924,1.34619 -1.22662,1.72807 -4.17359,1.66476 -3.55983,-0.0765 -5.14539,-1.61512 -5.72603,-5.5566 -0.54395,-3.69241 1.74865,-8.33535 4.85132,-9.82482 2.8371,-1.36198 12.10985,-3.61651 14.89851,-3.62234 5.24507,-0.011 9.29014,2.34283 11.89795,6.92334 0.68266,1.19908 2.82166,4.24736 4.7533,6.77394 9.93678,12.99724 17.11771,27.01137 17.17815,33.52445 0.0293,3.15142 -0.89446,4.55851 -5.04747,7.68885 -1.9448,1.46589 -4.78463,4.07608 -6.31074,5.80042 -4.58141,5.17649 -8.38467,8.81444 -11.01671,10.5379 -5.64499,3.69632 -10.64819,5.47824 -17.3534,6.18052 l -3.89288,0.40772 -1.48103,1.61786 c -0.87804,0.95917 -2.47781,3.72196 -3.92927,6.78588 -4.16439,8.79063 -5.68522,11.3207 -13.33916,22.19122 -2.1698,3.08165 -4.60976,6.88599 -5.42214,8.45408 l -1.47706,2.85108 -31.39089,0.0911 c -17.265,0.0501 -31.5817,-0.036 -31.81491,-0.19141 z"
         id="path8978"
         inkscape:connector-curvature="0" />
      <path
         style="fill:#ffffff"
         d="m 343.74742,553.42672 c -0.99553,-4.39014 -1.57074,-6.00232 -3.04104,-8.52321 -4.47568,-7.67377 -7.44141,-16.21116 -8.04432,-23.15701 -0.64148,-7.3902 -3.48316,-9.57239 -13.19132,-10.12992 -5.72664,-0.32887 -8.32613,-1.02806 -12.63293,-3.3979 -3.41824,-1.88091 -8.0879,-5.25397 -11.29628,-8.15972 -1.4756,-1.33642 -4.57641,-3.87951 -6.89068,-5.6513 -5.38196,-4.12041 -6.22593,-4.90787 -7.00977,-6.54036 -0.75421,-1.57077 -0.83281,-5.66654 -0.15166,-7.90276 0.24731,-0.81192 0.80539,-2.6821 1.24016,-4.15594 1.42437,-4.8284 10.20651,-20.62305 14.58044,-26.22288 0.5756,-0.73692 1.85116,-3.14866 2.83459,-5.35942 2.2242,-5.00002 3.01094,-6.04858 5.59443,-7.45618 1.70684,-0.92996 2.61447,-1.14697 5.34681,-1.27836 5.45671,-0.26242 11.63874,1.5315 12.75559,3.70143 0.72667,1.41185 1.14979,10.01777 0.62357,12.68272 -0.7492,3.7942 -2.38063,4.00882 -4.24105,0.55791 -1.00971,-1.87291 -1.0218,-1.88056 -3.6728,-2.32443 -1.46287,-0.24493 -3.32985,-0.72531 -4.14884,-1.06751 -0.819,-0.3422 -1.62105,-0.48902 -1.78233,-0.32628 -0.16128,0.16274 -1.09483,2.6215 -2.07454,5.46391 -0.97972,2.84241 -2.12813,5.76971 -2.55203,6.50512 -0.74589,1.29399 -0.75521,1.55524 -0.28914,8.10362 0.26487,3.72159 0.38617,8.15861 0.26955,9.86005 -0.11662,1.70144 -0.0625,3.18597 0.12037,3.29896 0.18282,0.11299 1.3367,-0.12426 2.56418,-0.52722 7.10328,-2.33188 13.05664,-0.9626 18.12183,4.16805 l 2.52426,2.5569 2.45234,-0.51316 c 3.95652,-0.8279 9.10421,-1.06649 12.02734,-0.55745 3.56544,0.62089 6.33636,2.00779 8.78212,4.39562 2.39237,2.3357 6.11831,4.2889 8.8228,4.62507 2.50148,0.31093 4.24949,-0.61135 5.44558,-2.87318 0.74335,-1.4057 0.87088,-2.22549 0.87088,-5.59846 0,-2.53682 -0.19903,-4.46835 -0.5559,-5.39491 -0.30575,-0.79382 -0.82988,-2.41701 -1.16474,-3.60709 -0.48622,-1.72801 -0.79732,-2.21109 -1.54474,-2.39868 -1.3588,-0.34103 -1.96888,-1.52899 -2.69823,-5.2541 -0.72534,-3.70462 -0.55756,-5.11178 0.64705,-5.4268 0.76673,-0.2005 0.79636,-0.35015 0.4827,-2.43834 -0.53337,-3.55098 -0.37353,-7.75872 0.37855,-9.96535 1.80937,-5.30873 8.21473,-9.29468 14.93642,-9.29468 9.62308,0 15.16755,5.74219 15.16755,15.70843 0,3.53867 0.42425,4.58081 1.86486,4.58081 0.36394,0 0.86844,0.20672 1.1211,0.45938 1.55348,1.55348 -1.28754,10.6119 -3.50261,11.16784 -0.51159,0.12841 -1.00531,0.45028 -1.09714,0.71529 -0.28101,0.8109 0.47168,7.99308 1.10384,10.53273 0.77784,3.12496 2.37584,5.30553 4.61341,6.29531 2.35184,1.04033 4.33262,0.77864 6.99819,-0.92457 2.78698,-1.78079 6.13348,-3.43419 9.18758,-4.53929 3.23819,-1.17172 9.20699,-1.31474 10.81792,-0.25922 1.43929,0.94306 1.87105,0.85329 3.36687,-0.70004 2.09865,-2.17934 6.68489,-5.04994 9.41557,-5.89336 3.45424,-1.06691 6.77054,-1.00864 10.31511,0.18123 1.56803,0.52638 3.40721,0.9564 4.08706,0.95561 1.52161,-0.002 3.59926,-1.21917 4.15237,-2.43311 0.35423,-0.77746 0.21771,-1.17599 -0.96849,-2.82709 -3.79066,-5.27632 -5.26098,-11.02143 -5.3645,-20.96125 -0.0994,-9.54584 -0.77879,-10.97421 -4.80861,-10.10998 -1.63176,0.34995 -2.11634,0.66235 -2.92655,1.88666 -1.12595,1.70143 -3.0226,2.71885 -5.48524,2.94247 -3.0954,0.28107 -3.46072,0.43377 -3.46072,1.44652 0,1.34384 -1.21394,1.83824 -4.06742,1.65655 -2.92058,-0.18597 -4.24732,-1.03107 -5.02148,-3.19857 -0.78469,-2.19696 -0.44418,-6.16113 0.7082,-8.24471 1.6033,-2.89888 3.32622,-3.85486 10.17082,-5.64341 3.59427,-0.93922 6.98604,-1.59899 8.22009,-1.59899 2.58525,0 5.69349,0.88971 7.66408,2.19378 1.52374,1.00836 3.83475,3.84447 4.4759,5.49288 0.19824,0.50968 1.5196,2.39097 2.93636,4.18063 8.25466,10.42735 14.34026,20.76747 17.2922,29.38142 1.42258,4.15116 1.88613,8.26126 0.99705,8.8403 -0.2122,0.1382 -0.58903,0.63718 -0.8374,1.10886 -0.24837,0.47167 -1.43697,1.5874 -2.64132,2.47939 -3.48578,2.58173 -5.44791,4.42787 -9.26966,8.72172 -4.31518,4.84822 -7.21933,7.3899 -11.1786,9.78339 -4.84145,2.92678 -12.27405,5.13578 -17.30643,5.14353 -1.71558,0.003 -2.00628,0.14273 -3.37678,1.62724 -0.89781,0.97251 -2.49121,3.69931 -3.97064,6.79498 -4.48263,9.37982 -5.56276,11.17554 -13.81754,22.97157 -2.13644,3.05295 -4.46351,6.67056 -5.17127,8.03913 l -1.28683,2.4883 -31.65845,0.0979 -31.65845,0.0979 -0.23922,-1.05495 z"
         id="path8976"
         inkscape:connector-curvature="0" />
      <path
         style="fill:#ffffff"
         d="m 343.46293,551.12359 c -0.35112,-1.63397 -1.07107,-3.74424 -1.59989,-4.6895 -5.60269,-10.01479 -8.17584,-17.18426 -8.95076,-24.9392 -0.42152,-4.21824 -0.90351,-5.36978 -3.06491,-7.32248 -2.02023,-1.82516 -4.5289,-2.50516 -10.0109,-2.71359 -6.77966,-0.25777 -11.47233,-2.07278 -18.63416,-7.20726 -1.73096,-1.24097 -4.12043,-3.15256 -5.30994,-4.24797 -1.18951,-1.09542 -4.59675,-3.8902 -7.57164,-6.21062 -3.54693,-2.76661 -5.63932,-4.67744 -6.07824,-5.55083 -0.36813,-0.73253 -0.68941,-1.15961 -0.71395,-0.94906 -0.0245,0.21055 -0.15763,-0.22012 -0.29576,-0.95704 -0.31811,-1.69717 -0.0728,-5.80543 0.33178,-5.55541 0.16746,0.10349 0.42068,-0.58681 0.56272,-1.53402 0.4389,-2.92678 1.92018,-6.68111 4.60386,-11.66855 3.37135,-6.26544 7.90752,-13.87344 9.68968,-16.25142 0.78145,-1.04271 2.62669,-4.30074 4.10053,-7.24007 3.09239,-6.16726 4.04032,-7.08787 8.40096,-8.15891 2.48907,-0.61134 2.89539,-0.61262 6.36799,-0.0201 4.14936,0.70806 7.73376,2.11326 8.35593,3.27579 0.52153,0.97448 0.99761,10.05449 0.64905,12.37887 -0.52927,3.52939 -2.20871,3.92578 -3.68779,0.87041 -0.97207,-2.00803 -1.39454,-2.27257 -4.19928,-2.62946 -1.15802,-0.14735 -2.86993,-0.60571 -3.80425,-1.01857 -1.36887,-0.60488 -1.78482,-0.65574 -2.14191,-0.2619 -0.24372,0.26881 -1.18054,2.64209 -2.08182,5.27395 -0.90128,2.63186 -2.05375,5.60968 -2.56104,6.61737 -0.90833,1.80434 -0.91587,1.90612 -0.49656,6.69928 0.23417,2.6769 0.37017,7.13603 0.30222,9.90918 -0.0679,2.77314 -0.006,5.15952 0.13744,5.30307 0.14354,0.14354 1.43479,-0.14114 2.86945,-0.63263 2.04236,-0.69968 3.43926,-0.89515 6.43661,-0.90068 3.53455,-0.007 4.0302,0.0886 6.46237,1.24046 1.88565,0.89302 3.32426,1.96883 5.06253,3.78582 2.71096,2.83373 2.04324,2.68679 7.61589,1.67595 2.99148,-0.54264 8.61137,-0.45117 11.03291,0.17956 3.13404,0.81631 4.9195,1.8265 7.12321,4.03021 2.62235,2.62235 6.72854,4.58547 9.58723,4.58353 2.61737,-0.002 4.20167,-0.88986 5.20945,-2.92019 1.11788,-2.25215 1.0338,-8.52013 -0.16886,-12.58786 -1.31041,-4.43219 -1.48006,-4.77975 -2.33305,-4.77975 -0.42075,0 -1.03131,-0.40642 -1.35678,-0.90315 -0.68744,-1.04917 -1.70646,-5.54594 -1.71613,-7.573 -0.006,-1.18756 0.14205,-1.43138 0.99719,-1.646 0.98013,-0.246 0.99595,-0.29895 0.66992,-2.2427 -0.18364,-1.09491 -0.32459,-3.62728 -0.31321,-5.62749 0.0162,-2.85482 0.19561,-4.02502 0.83426,-5.44258 1.27008,-2.81912 3.89893,-5.3536 7.08738,-6.83295 2.44865,-1.13611 3.234,-1.30598 6.65078,-1.43861 10.12081,-0.39287 14.94186,4.34744 15.73713,15.47358 l 0.29502,4.12744 1.25912,0.32532 c 1.88426,0.48683 2.26931,1.67395 1.47253,4.53982 -0.99539,3.58018 -2.73907,6.77833 -3.7759,6.92547 -0.8468,0.12017 -0.86696,0.22477 -0.7617,3.9516 0.28307,10.02211 2.81372,14.41241 8.35374,14.4925 1.62383,0.0235 2.37233,-0.21581 4.2209,-1.34931 8.6407,-5.29829 15.3147,-6.94822 19.94579,-4.93094 l 2.00329,0.87262 2.20768,-2.02149 c 6.39229,-5.85318 12.5701,-7.46116 19.57763,-5.09574 3.43953,1.16103 5.09874,1.05324 6.88175,-0.44707 1.58094,-1.33027 1.69088,-2.21778 0.484,-3.90732 -2.36524,-3.31116 -3.67739,-6.28984 -4.88374,-11.08649 -0.48296,-1.92038 -0.66979,-4.41602 -0.71084,-9.49571 -0.0756,-9.35193 -0.74176,-11.32916 -3.79211,-11.2549 -2.50739,0.061 -3.42132,0.47222 -4.40427,1.98155 -1.14959,1.76523 -3.31531,2.83436 -6.5386,3.22785 -2.37431,0.28985 -2.49332,0.35426 -2.68229,1.45173 -0.19558,1.13583 -0.22713,1.14951 -2.87488,1.24673 -1.60137,0.0588 -3.06169,-0.0972 -3.63416,-0.38814 -3.41173,-1.7341 -2.95014,-9.92335 0.73406,-13.0234 1.21596,-1.02317 4.43394,-2.14284 10.75041,-3.74053 4.05047,-1.02452 8.46536,-0.9073 11.16151,0.29636 2.17831,0.97248 4.39156,3.19169 5.84335,5.8591 0.59908,1.10071 2.45388,3.74473 4.12178,5.87558 8.19077,10.4643 14.74855,22.00255 16.76299,29.49406 0.40058,1.48973 0.75858,2.45019 0.79557,2.13437 0.037,-0.31582 0.19258,0.0718 0.34578,0.86133 0.15319,0.78956 0.15319,2.08157 0,2.87112 -0.1532,0.78956 -0.30509,1.26329 -0.33754,1.05275 -0.0325,-0.21055 -0.29785,0.16634 -0.58976,0.83752 -0.31818,0.7316 -1.65373,2.05809 -3.33465,3.31206 -3.34606,2.49614 -5.28232,4.34788 -10.75945,10.28972 -7.50459,8.14134 -14.91464,11.9698 -24.98793,12.91024 -3.74536,0.34966 -3.82691,0.37843 -5.04942,1.78181 -1.6178,1.85716 -3.0538,4.43183 -5.42059,9.71881 -2.32099,5.18469 -4.64311,8.99029 -11.33245,18.57221 -2.79279,4.00042 -5.61664,8.35017 -6.27522,9.6661 l -1.19744,2.39259 -31.51159,0 -31.51161,0 -0.6384,-2.97084 z"
         id="path8974"
         inkscape:connector-curvature="0" />
    </g>
    <path
       style="fill:#ffffff;fill-rule:evenodd;stroke:none;stroke-width:1px;stroke-linecap:butt;stroke-linejoin:miter;stroke-opacity:1"
       d="m 343.54657,553.66252 c 0.35323,2.58401 2.28929,7.47169 3.12516,9.97526 15.34287,2.44927 36.31047,5.37431 59.63056,-0.66292 0.45781,-2.20996 4.65896,-8.66073 5.42942,-12.35009 z"
       id="path8988"
       inkscape:connector-curvature="0"
       sodipodi:nodetypes="ccccc"
       inkscape:export-xdpi="90"
       inkscape:export-ydpi="90" />
  </g>
</svg>
