<?xml version="1.0" encoding="UTF-8" standalone="no"?>
<!-- Created with Inkscape (http://www.inkscape.org/) -->

<svg
   xmlns:dc="http://purl.org/dc/elements/1.1/"
   xmlns:cc="http://creativecommons.org/ns#"
   xmlns:rdf="http://www.w3.org/1999/02/22-rdf-syntax-ns#"
   xmlns:svg="http://www.w3.org/2000/svg"
   xmlns="http://www.w3.org/2000/svg"
   xmlns:sodipodi="http://sodipodi.sourceforge.net/DTD/sodipodi-0.dtd"
   xmlns:inkscape="http://www.inkscape.org/namespaces/inkscape"
   id="svg3390"
   version="1.1"
   inkscape:version="0.91 r13725"
   width="1100"
   height="1100"
   viewBox="0 0 1100 1100"
   sodipodi:docname="scale.svg">
  <metadata
     id="metadata3396">
    <rdf:RDF>
      <cc:Work
         rdf:about="">
        <dc:format>image/svg+xml</dc:format>
        <dc:type
           rdf:resource="http://purl.org/dc/dcmitype/StillImage" />
        <dc:title></dc:title>
      </cc:Work>
    </rdf:RDF>
  </metadata>
  <defs
     id="defs3394">
    <inkscape:path-effect
       effect="skeletal"
       id="path-effect4404"
       is_visible="true"
       pattern="M 0,5 C 0,2.24 2.24,0 5,0 7.76,0 10,2.24 10,5 10,7.76 7.76,10 5,10 2.24,10 0,7.76 0,5 Z"
       copytype="single_stretched"
       prop_scale="1"
       scale_y_rel="false"
       spacing="0"
       normal_offset="0"
       tang_offset="0"
       prop_units="false"
       vertical_pattern="false"
       fuse_tolerance="0" />
    <inkscape:path-effect
       effect="skeletal"
       id="path-effect4396"
       is_visible="true"
       pattern="M 0,5 C 0,2.24 2.24,0 5,0 7.76,0 10,2.24 10,5 10,7.76 7.76,10 5,10 2.24,10 0,7.76 0,5 Z"
       copytype="single_stretched"
       prop_scale="1"
       scale_y_rel="false"
       spacing="0"
       normal_offset="0"
       tang_offset="0"
       prop_units="false"
       vertical_pattern="false"
       fuse_tolerance="0" />
    <inkscape:path-effect
       effect="skeletal"
       id="path-effect4363"
       is_visible="true"
       pattern="M 0,5 C 0,2.24 2.24,0 5,0 7.76,0 10,2.24 10,5 10,7.76 7.76,10 5,10 2.24,10 0,7.76 0,5 Z"
       copytype="single_stretched"
       prop_scale="1"
       scale_y_rel="false"
       spacing="0"
       normal_offset="0"
       tang_offset="0"
       prop_units="false"
       vertical_pattern="false"
       fuse_tolerance="0" />
    <inkscape:path-effect
       effect="skeletal"
       id="path-effect4359"
       is_visible="true"
       pattern="M 0,5 C 0,2.24 2.24,0 5,0 7.76,0 10,2.24 10,5 10,7.76 7.76,10 5,10 2.24,10 0,7.76 0,5 Z"
       copytype="single_stretched"
       prop_scale="1"
       scale_y_rel="false"
       spacing="0"
       normal_offset="0"
       tang_offset="0"
       prop_units="false"
       vertical_pattern="false"
       fuse_tolerance="0" />
    <inkscape:path-effect
       effect="skeletal"
       id="path-effect4237"
       is_visible="true"
       pattern="M 0,5 C 0,2.24 2.24,0 5,0 7.76,0 10,2.24 10,5 10,7.76 7.76,10 5,10 2.24,10 0,7.76 0,5 Z"
       copytype="single_stretched"
       prop_scale="1"
       scale_y_rel="false"
       spacing="0"
       normal_offset="0"
       tang_offset="0"
       prop_units="false"
       vertical_pattern="false"
       fuse_tolerance="0" />
    <inkscape:path-effect
       effect="skeletal"
       id="path-effect4214"
       is_visible="true"
       pattern="M 0,5 C 0,2.24 2.24,0 5,0 7.76,0 10,2.24 10,5 10,7.76 7.76,10 5,10 2.24,10 0,7.76 0,5 Z"
       copytype="single_stretched"
       prop_scale="1"
       scale_y_rel="false"
       spacing="0"
       normal_offset="0"
       tang_offset="0"
       prop_units="false"
       vertical_pattern="false"
       fuse_tolerance="0" />
    <inkscape:path-effect
       effect="skeletal"
       id="path-effect4210"
       is_visible="true"
       pattern="m -16,13 c 0,-2.76 2.24,-5 5,-5 2.76,0 5,2.24 5,5 0,2.76 -2.24,5 -5,5 -2.76,0 -5,-2.24 -5,-5 z"
       copytype="single_stretched"
       prop_scale="1"
       scale_y_rel="false"
       spacing="0"
       normal_offset="0"
       tang_offset="0"
       prop_units="false"
       vertical_pattern="false"
       fuse_tolerance="0" />
    <inkscape:path-effect
       effect="skeletal"
       id="path-effect4202"
       is_visible="true"
       pattern="M 0,5 C 0,2.24 2.24,0 5,0 7.76,0 10,2.24 10,5 10,7.76 7.76,10 5,10 2.24,10 0,7.76 0,5 Z"
       copytype="single_stretched"
       prop_scale="1"
       scale_y_rel="false"
       spacing="0"
       normal_offset="0"
       tang_offset="0"
       prop_units="false"
       vertical_pattern="false"
       fuse_tolerance="0" />
    <inkscape:path-effect
       effect="skeletal"
       id="path-effect4214-9"
       is_visible="true"
       pattern="m -51.451437,-6.5242661 c 0,-2.7599998 2.24,-4.9999999 5,-4.9999999 2.76,0 5,2.2400001 5,4.9999999 0,2.76 -2.24,5 -5,5 -2.76,0 -5,-2.24 -5,-5 z"
       copytype="single_stretched"
       prop_scale="1"
       scale_y_rel="false"
       spacing="0"
       normal_offset="0"
       tang_offset="0"
       prop_units="false"
       vertical_pattern="false"
       fuse_tolerance="0" />
    <inkscape:path-effect
       effect="skeletal"
       id="path-effect4210-7"
       is_visible="true"
       pattern="m 23.840668,-28.393026 c 0,-2.76 2.24,-5 5,-5 2.76,0 5,2.24 5,5 0,2.76 -2.24,5 -5,5 -2.76,0 -5,-2.24 -5,-5 z"
       copytype="single_stretched"
       prop_scale="1"
       scale_y_rel="false"
       spacing="0"
       normal_offset="0"
       tang_offset="0"
       prop_units="false"
       vertical_pattern="false"
       fuse_tolerance="0" />
  </defs>
  <sodipodi:namedview
     pagecolor="#ffffff"
     bordercolor="#666666"
     borderopacity="1"
     objecttolerance="10"
     gridtolerance="10"
     guidetolerance="10"
     inkscape:pageopacity="0"
     inkscape:pageshadow="2"
     inkscape:window-width="1280"
     inkscape:window-height="751"
     id="namedview3392"
     showgrid="false"
     inkscape:zoom="0.28"
     inkscape:cx="559.90518"
     inkscape:cy="570.28693"
     inkscape:window-x="0"
     inkscape:window-y="1"
     inkscape:window-maximized="1"
     inkscape:current-layer="svg3390" />
  <path
     style="fill:#000080;fill-rule:evenodd;stroke:none;stroke-width:1px;stroke-linecap:butt;stroke-linejoin:miter;stroke-opacity:1;fill-opacity:1"
     d="m 72,722 c -0.418895,-0.0356 -0.603013,-69.86458 22.130504,-171.91737 11.130306,-49.96312 27.845876,-106.59038 53.134736,-165.11535 1.72494,-3.99149 3.48799,-7.9871 5.28964,-11.98592 24.86508,-55.1886 53.59985,-103.27173 82.79462,-144.15409 33.46979,-46.86419 66.64415,-83.03565 90.62447,-106.9568 C 350.12562,97.778408 365.46381,85.427945 366,86 c 0.78065,0.832876 -13.31413,14.49729 -36.23002,39.50904 -22.73224,24.8113 -54.74319,61.59922 -87.16208,108.42288 -28.31987,40.89921 -56.34633,88.58039 -80.93569,143.15722 -1.78117,3.95337 -3.52612,7.90265 -5.23537,11.84707 -25.06522,57.83565 -42.09108,113.7085 -53.97163,163.0772 C 78.216292,652.77477 75.168747,722.26937 72,722 Z"
     id="path4200"
     inkscape:path-effect="#path-effect4202"
     inkscape:original-d="M 72,722 C 91.702108,490.23508 167.23399,272.3029 366,86"
     inkscape:connector-curvature="0"
     sodipodi:nodetypes="cc" />
  <path
     style="fill:#000080;fill-opacity:1;fill-rule:evenodd;stroke:none;stroke-width:1px;stroke-linecap:butt;stroke-linejoin:miter;stroke-opacity:1"
     d="m 70,734 c 0.838459,-0.76664 12.462255,11.63002 34.46543,31.17141 22.42298,19.91422 54.06442,45.69356 96.84201,72.67411 40.52862,25.56114 86.96932,49.70496 141.18257,72.05362 2.42691,1.00046 4.85062,1.9896 7.27067,2.96759 55.63686,22.48134 109.56022,39.12924 155.71098,51.75498 C 595.19502,989.16618 656.47358,999.41317 656,1002 c -0.17153,0.937 -62.02899,-6.19531 -152.69346,-29.15702 -46.64568,-11.81261 -101.08738,-28.0504 -157.28741,-50.70566 -2.44334,-0.98484 -4.89023,-1.98195 -7.34019,-2.99152 C 284.02219,896.62293 237.07696,871.69889 196.58407,845.19586 153.8514,817.228 122.43899,790.04449 100.96003,768.9211 79.788083,748.09964 69.455963,734.49744 70,734 Z"
     id="path4208"
     inkscape:path-effect="#path-effect4210"
     inkscape:original-d="m 70,734 c 153.06503,167.4042 392.64138,232.6012 586,268"
     inkscape:connector-curvature="0"
     sodipodi:nodetypes="cc" />
  <path
     style="fill:#000080;fill-opacity:1;fill-rule:evenodd;stroke:none;stroke-width:1px;stroke-linecap:butt;stroke-linejoin:miter;stroke-opacity:1"
     d="m 672,1000 c -0.613,-1.06025 17.80053,-11.8621 47.99506,-32.94062 29.57019,-20.64268 72.66693,-52.86761 115.37072,-96.58024 35.81127,-36.6475 71.30745,-81.47451 101.35718,-134.75489 2.32209,-4.11724 4.58749,-8.24237 6.79667,-12.37399 30.5888,-57.18363 50.20569,-114.96604 63.14857,-165.94443 13.4151,-52.83893 20.3969,-101.11563 24.4341,-132.41209 4.1789,-32.39535 5.839,-51.06439 6.8977,-50.99374 0.7663,0.0511 0.8248,18.83702 -1.8996,51.52389 -2.6495,31.78762 -8.3117,80.12832 -21.0717,133.93412 -12.2665,51.72486 -31.67171,110.43295 -62.69452,168.60031 -2.24148,4.20101 -4.54198,8.39426 -6.90194,12.57818 -30.54286,54.14864 -66.91666,99.46186 -103.71418,136.13339 -43.95756,43.79533 -88.09892,75.15722 -118.76867,94.71615 C 691.70292,991.41275 672.3627,1000.6273 672,1000 Z"
     id="path4212"
     inkscape:path-effect="#path-effect4214"
     inkscape:original-d="M 672,1000 C 936.91318,846.837 1020.8919,630.37444 1038,374"
     inkscape:connector-curvature="0"
     sodipodi:nodetypes="cc" />
  <path
     style="fill:#000080;fill-rule:evenodd;stroke:none;stroke-width:1px;stroke-linecap:butt;stroke-linejoin:miter;stroke-opacity:1;fill-opacity:1"
     d="m 374,84 c 0.12797,-0.830079 20.53473,0.934882 55.39753,7.018155 34.87368,6.085172 84.08891,16.557925 141.1866,34.136485 47.33414,14.57428 98.09122,33.40764 151.93172,57.56711 6.27859,2.81735 12.49501,5.66041 18.64767,8.52513 0,0 3e-5,1e-5 3e-5,1e-5 83.94085,39.09254 163.00461,86.01014 213.08516,116.62796 52.72149,32.23244 84.34739,53.1327 83.75129,54.12515 -0.7754,1.29095 -33.6662,-17.53619 -87.25707,-48.19937 -50.04549,-28.6346 -131.25627,-75.23988 -213.78662,-113.49909 0,0 -3e-5,-10e-6 -3e-5,-10e-6 -6.11813,-2.83691 -12.29676,-5.6567 -18.53456,-8.45561 C 664.87106,167.81762 614.75668,148.82664 567.89246,133.68817 511.43416,115.44859 462.81936,103.81971 428.36775,96.244169 393.94999,88.676066 373.82995,85.102967 374,84 Z"
     id="path4235"
     inkscape:path-effect="#path-effect4237"
     inkscape:original-d="m 374,84 c 281.21185,43.35495 470.94789,162.04292 664,278"
     inkscape:connector-curvature="0"
     sodipodi:nodetypes="cc" />
  <path
     style="fill:#000080;fill-opacity:1;fill-rule:evenodd;stroke:none;stroke-width:1px;stroke-linecap:butt;stroke-linejoin:miter;stroke-opacity:1"
     d="m 670.54857,944.47574 c -0.6819,-0.93323 15.04955,-12.89804 41.15022,-34.8229 25.25618,-21.21548 63.35867,-54.48398 100.70158,-96.33742 31.09553,-34.84633 62.51074,-76.79688 88.92953,-125.70909 1.6465,-3.04836 3.26086,-6.10024 4.8432,-9.15531 26.75389,-51.62198 44.22531,-103.79188 56.07372,-149.9594 12.73124,-49.60749 20.10622,-96.3413 24.46602,-125.5995 4.58361,-30.76013 6.79035,-48.5152 7.83576,-48.41638 0.81018,0.0766 0.34733,17.9958 -2.76551,49.04769 -2.99614,29.88784 -8.9651,76.384 -21.0865,127.06246 -11.21031,46.86836 -28.48088,99.89626 -55.64628,152.45938 -1.6076,3.10866 -3.24882,6.21319 -4.92375,9.31317 -26.88199,49.75337 -59.08422,92.12884 -91.08663,126.96881 -38.55404,41.96604 -77.53497,74.22491 -104.00145,94.4894 -27.19842,20.82492 -44.01673,31.30667 -44.48991,30.65909 z"
     id="path4212-0"
     inkscape:path-effect="#path-effect4214-9"
     inkscape:original-d="M 670.54857,944.47574 C 902.63,774.89687 970.63549,607.44769 994.5486,354.47574"
     inkscape:connector-curvature="0"
     sodipodi:nodetypes="cc" />
  <path
     style="fill:#000080;fill-opacity:1;fill-rule:evenodd;stroke:none;stroke-width:1px;stroke-linecap:butt;stroke-linejoin:miter;stroke-opacity:1"
     d="m 109.84067,692.60697 c 0.83157,-0.76035 11.97679,10.88756 32.51496,29.6849 20.40001,18.67089 50.6359,44.77889 89.54708,70.73525 34.41981,22.96657 74.25377,44.91241 120.21391,64.32973 2.50592,1.05871 5.00925,2.10109 7.50951,3.12741 47.61742,19.54853 94.75242,33.58291 135.0254,44.11949 39.47553,10.32644 79.95786,19.15881 102.29707,24.15146 24.84702,5.55312 39.06429,8.91104 38.89207,9.85176 -0.15721,0.8587 -14.68115,-0.81038 -39.84481,-4.92142 -23.92672,-3.90896 -62.21914,-10.83476 -103.43785,-20.73566 -40.777,-9.79334 -88.41792,-23.44864 -136.72299,-43.21616 -2.53406,-1.03712 -5.07093,-2.09179 -7.61009,-3.16428 C 301.6884,846.91329 261.37498,824.22892 226.92013,800.3532 187.90612,773.311 158.22246,745.98523 138.70936,726.06294 119.07462,706.01645 109.2556,693.14193 109.84067,692.60697 Z"
     id="path4208-0"
     inkscape:path-effect="#path-effect4210-7"
     inkscape:original-d="m 109.84067,692.60697 c 153.06503,167.4042 332.64138,210.6012 526,246"
     inkscape:connector-curvature="0"
     sodipodi:nodetypes="cc" />
  <path
     style="fill:#000080;fill-rule:evenodd;stroke:none;stroke-width:1px;stroke-linecap:butt;stroke-linejoin:miter;stroke-opacity:1;fill-opacity:1"
     d="m 380.82163,826.35571 c -0.45046,-0.33456 16.43328,-26.30551 43.43634,-70.64736 11.40835,-18.74103 27.77892,-45.61447 45.49075,-69.74261 15.52484,-21.15228 34.63294,-43.67165 57.87808,-63.77357 23.30283,-20.08618 50.77882,-37.68569 81.82572,-51.33361 15.06416,-4.39756 30.28037,-9.44417 45.28588,-15.39871 8.53971,-3.38877 16.87517,-7.01748 24.99631,-10.92438 18.7037,-9.01313 35.9681,-19.35202 51.25635,-31.5843 13.57787,-10.86358 25.32874,-23.02206 34.71478,-36.33824 9.08859,-12.87676 15.87224,-26.72715 20.4548,-40.69398 4.9483,-15.05571 7.40283,-30.36162 8.27626,-44.84194 1.0368,-17.19624 -0.11502,-33.80033 -2.05539,-48.62361 0,0 -1e-5,-2e-5 -1e-5,-2e-5 -4.19072,-32.0484 -12.84969,-61.52484 -17.93364,-78.2442 -5.54514,-18.2361 -8.97314,-28.1914 -8.24385,-28.46906 0.52659,-0.20049 5.16129,9.29079 11.85182,27.24935 6.23029,16.72319 15.98231,45.58981 21.19153,78.47034 0,0 1e-5,2e-5 1e-5,2e-5 2.38953,15.09702 3.94806,32.12936 3.2182,50.02144 -0.61467,15.07464 -2.93093,31.12731 -7.92886,47.12086 -4.64652,14.84364 -11.65375,29.59426 -21.1696,43.36055 -9.83432,14.2089 -22.10667,27.13753 -36.26953,38.5821 -15.92571,12.86892 -33.79463,23.68835 -53.0285,32.9759 -8.27256,4.00125 -16.74888,7.70574 -25.41685,11.15013 -15.23302,6.05316 -30.62589,11.13108 -45.82693,15.50085 -29.96677,13.08519 -56.53276,29.903 -79.13961,49.10122 -22.74732,19.25344 -41.75762,41.05664 -57.41186,61.57512 -17.65701,23.14763 -35.0011,50.0627 -46.83019,68.13462 -28.526,43.59739 -47.22694,68.40922 -48.62201,67.37309 z"
     id="path4357"
     inkscape:path-effect="#path-effect4359"
     inkscape:original-d="M 380.82163,826.35571 C 447.1522,737.04662 483.55769,631.41476 611.13891,575.51511 826.419,513.15198 822.06318,382.45768 766.20401,235.74012"
     inkscape:connector-curvature="0"
     sodipodi:nodetypes="ccc" />
  <path
     style="fill:#000080;fill-rule:evenodd;stroke:none;stroke-width:1px;stroke-linecap:butt;stroke-linejoin:miter;stroke-opacity:1;fill-opacity:1"
     d="m 355.73757,810.39313 c -1.57018,-0.81546 11.03377,-24.48377 32.74341,-64.35486 9.28074,-17.05247 21.91297,-40.59686 31.75137,-64.77381 8.68081,-21.32815 16.32318,-45.88339 20.13123,-72.45476 3.96668,-27.28604 3.87816,-56.48975 -0.47056,-86.97421 -6.9855,-22.92209 -13.26652,-47.29388 -17.33439,-72.42757 -2.40015,-14.82953 -3.96838,-29.53738 -4.56224,-44.16409 -0.73603,-17.99262 0.11108,-35.61274 2.93841,-52.67482 2.80668,-16.93541 7.59338,-33.01567 14.32895,-47.80244 7.22675,-15.84554 16.6148,-29.92132 27.21611,-41.94112 0,0 2e-5,-10e-6 2e-5,-10e-6 12.74214,-14.43386 27.18032,-25.96467 41.34463,-35.04342 19.67375,-12.6098 39.7416,-21.24517 56.63945,-27.25526 45.12183,-16.05386 73.49043,-17.17505 73.47864,-17.23513 0.4371,2.2271 -27.54777,5.42644 -71.38869,22.79777 -16.37966,6.49226 -35.79773,15.49167 -54.52299,28.09803 -13.48121,9.07591 -27.14714,20.39842 -39.02966,34.30445 0,0 -2e-5,2e-5 -2e-5,2e-5 -9.89133,11.5647 -18.61808,25.02685 -25.28688,40.07557 -6.23414,14.04905 -10.63616,29.37025 -13.21949,45.55724 -2.60558,16.32401 -3.32469,33.27289 -2.57224,50.70201 0.62083,14.27946 2.18911,28.68124 4.56135,43.25821 4.01875,24.69444 10.17621,48.83008 16.96694,71.6521 4.38802,31.63543 4.25092,62.03484 -0.13109,90.41589 -4.29306,27.44441 -12.54214,52.52148 -21.87808,74.13623 -10.63494,24.61704 -23.88625,47.74598 -33.89022,64.63006 -23.12391,39.04378 -37.4567,61.65946 -37.81396,61.47392 z"
     id="path4361"
     inkscape:path-effect="#path-effect4363"
     inkscape:original-d="M 355.73757,810.39313 C 400.25518,724.67409 463.17377,652.33759 444.67197,520.78626 395.41274,357.22012 417.01988,225.86597 633.9426,183.29163"
     inkscape:connector-curvature="0"
     sodipodi:nodetypes="ccc" />
  <path
     style="fill:#000080;fill-opacity:1;fill-rule:evenodd;stroke:none;stroke-width:1px;stroke-linecap:butt;stroke-linejoin:miter;stroke-opacity:1"
     d="m 618,390 c -1.23548,0.20309 -3.47172,-6.34148 -6.16488,-17.31536 -3.24354,-13.21653 -7.14985,-32.85772 -10.7689,-54.87361 C 594.44222,277.51503 591.27655,244.44769 594,244 c 2.72345,-0.44769 10.30979,31.89297 16.93379,72.18897 3.61905,22.01588 6.20577,41.87399 7.36375,55.43335 C 619.25902,382.88087 619.23548,389.79691 618,390 Z"
     id="path4394"
     inkscape:path-effect="#path-effect4396"
     inkscape:original-d="M 618,390 615.06633,372.15348 594,244 l 0,0"
     inkscape:connector-curvature="0"
     sodipodi:nodetypes="cccc" />
  <path
     style="opacity:1;fill:#000080;fill-opacity:1;stroke:#000080;stroke-width:4;stroke-miterlimit:4;stroke-dasharray:none;stroke-opacity:1"
     id="path4408"
     sodipodi:type="arc"
     sodipodi:cx="618"
     sodipodi:cy="387"
     sodipodi:rx="8"
     sodipodi:ry="9"
     sodipodi:start="0"
     sodipodi:end="6.1964599"
     sodipodi:open="true"
     d="m 626,387 a 8,9 0 0 1 -7.82656,8.99788 8,9 0 0 1 -8.16592,-8.60774 8,9 0 0 1 7.47249,-9.37111 8,9 0 0 1 8.48992,8.20142" />
</svg>
